<?xml version="1.0" encoding="UTF-8"?>
<svg version="1.1" xmlns="http://www.w3.org/2000/svg" width="512" height="512">
<path d="M0 0 C27.15075789 9.15444962 44.15219181 50.188311 55.95526123 73.86499023 C62.07539661 86.37199121 67.5465499 99.19218949 73 112 C73.51401367 113.20221191 74.02802734 114.40442383 74.55761719 115.64306641 C94.654079 162.94294164 110.26112735 212.25564693 123 262 C123.22558594 262.87936218 123.45117188 263.75872437 123.68359375 264.66473389 C130.72636021 292.21306956 136.43474859 319.93470674 141 348 C141.2077002 349.26150879 141.41540039 350.52301758 141.62939453 351.82275391 C143.86356895 365.93689905 144.28693551 379.98805588 144.375 394.25 C144.38321777 395.0809317 144.39143555 395.9118634 144.39990234 396.76797485 C144.62358045 427.22258048 144.62358045 427.22258048 135.2578125 436.77734375 C126.3561992 444.62627664 114.8212171 442.4219365 103.48876953 441.87988281 C65.24171666 439.36162435 28.08595636 425.66022556 -4 405 C-4.76699219 405.46148437 -5.53398437 405.92296875 -6.32421875 406.3984375 C-37.67495693 424.82291313 -71.86081532 436.70802884 -108 441 C-108.70463379 441.0942627 -109.40926758 441.18852539 -110.13525391 441.28564453 C-133.10715368 444.04661894 -158.32456677 443.29762717 -181 439 C-182.0223877 438.80664062 -183.04477539 438.61328125 -184.09814453 438.4140625 C-242.23860878 426.98180007 -297.80494303 395.43958774 -333 347 C-334.14855469 345.43378906 -334.14855469 345.43378906 -335.3203125 343.8359375 C-347.55060084 326.66239673 -357.01041997 308.3047124 -364.5 288.625 C-364.85078613 287.73401611 -365.20157227 286.84303223 -365.56298828 285.92504883 C-368.2038731 278.73552957 -369.8161154 271.0270385 -366.5625 263.8125 C-365.716875 262.884375 -364.87125 261.95625 -364 261 C-363.44828125 260.38769531 -362.8965625 259.77539062 -362.328125 259.14453125 C-322.34721657 219.08614044 -222.40871938 223.94049334 -169.3125 222.4375 C-168.58864105 222.41665344 -167.8647821 222.39580688 -167.11898804 222.37432861 C-149.06527074 221.86226798 -131.01114174 221.38361549 -113 223 C-113.33 222.34 -113.66 221.68 -114 221 C-119.12015178 174.98184572 -109.91967067 125.81763244 -88.07714844 85.01416016 C-87.33278249 83.62227008 -86.5969805 82.22577833 -85.86816406 80.82568359 C-80.24844354 70.03778546 -73.9269896 60.24201471 -66.359375 50.71777344 C-65.18750973 49.23694656 -64.0440492 47.73372189 -62.90625 46.2265625 C-51.65559983 31.71679541 -37.86663986 18.73390098 -23 8 C-22.00613281 7.28070313 -21.01226562 6.56140625 -19.98828125 5.8203125 C-12.94733243 0.81832604 -8.80954054 -0.99575924 0 0 Z M-7 15 C-16.24353454 25.50401653 -13.56379576 46.4685833 -12.79785156 59.41748047 C-6.83587716 141.86146229 18.65011108 223.93019906 106 414 C106.55042969 414.72316406 107.10085938 415.44632812 107.66796875 416.19140625 C111.13772597 420.4983703 115.13645617 424.30696333 120 427 C122.82216646 427.52066077 122.82216646 427.52066077 125 426 C147.32870076 388.15285221 119.21828675 306.37437106 109.0519104 266.84838867 C88.29326517 186.94454323 62.06964177 86.06697231 -1 16 C-4.17537168 15.18080895 -4.17537168 15.18080895 -7 15 Z M-39.45361328 42.44433594 C-51.95577231 55.193772 -62.29105261 69.43875525 -71 85 C-71.3722168 85.65548828 -71.74443359 86.31097656 -72.12792969 86.98632812 C-101.42479218 138.88648181 -107.42692045 201.72646147 -92 259 C-81.12463839 297.50120679 -61.50453805 331.09384661 -34 360 C-33.46068848 360.56799316 -32.92137695 361.13598633 -32.36572266 361.72119141 C2.00100438 397.65681266 47.77440635 419.91353831 97 426 C96.61835693 425.49573486 96.23671387 424.99146973 95.84350586 424.47192383 C55.44737143 370.88958434 32.10765528 303.39714451 12 240 C11.75570251 239.23163818 11.51140503 238.46327637 11.25970459 237.67163086 C-9.56693825 172.01943223 -28.53878499 101.41630075 -27 32 C-30.95112747 32 -36.57740257 39.58648196 -39.45361328 42.44433594 Z M-282 247 C-283.08442383 247.18143555 -284.16884766 247.36287109 -285.28613281 247.54980469 C-322.67031697 252.93930335 -322.67031697 252.93930335 -354 272 C-351.26366341 278.20236293 -345.44453713 281.46359725 -339.45043945 284.13720703 C-336.69575305 285.17178061 -333.92850793 286.10612452 -331.125 287 C-330.08472656 287.33684814 -329.04445313 287.67369629 -327.97265625 288.02075195 C-299.18900488 297.06710365 -269.05865982 301.13230175 -239.125 304.1875 C-237.9890892 304.30572113 -237.9890892 304.30572113 -236.83023071 304.42633057 C-230.89310169 305.03566006 -224.95041656 305.53941547 -219 306 C-217.87065033 306.08860291 -216.74130066 306.17720581 -215.57772827 306.26849365 C-191.34500763 308.09935974 -167.15922487 308.31422579 -142.8659668 308.26074219 C-137.53119801 308.24911688 -132.19662546 308.25608878 -126.86186314 308.26788712 C-122.71244292 308.27508482 -118.56307018 308.27283143 -114.41364861 308.26763153 C-112.44282952 308.26630105 -110.47200609 308.2679216 -108.50119209 308.27259064 C-105.78005382 308.27764608 -103.05924806 308.26997027 -100.33813477 308.25878906 C-99.13000877 308.26486176 -99.13000877 308.26486176 -97.8974762 308.27105713 C-94.06664398 308.24176302 -92.26468739 308.17645826 -89 306 C-89.38929688 305.26523437 -89.77859375 304.53046875 -90.1796875 303.7734375 C-94.27326253 295.56742304 -97.5305879 287.13870406 -100.47955322 278.46002197 C-101.0974685 276.64343869 -101.72789181 274.83112451 -102.35888672 273.01904297 C-106.27700936 261.24572403 -108.62678078 249.16490728 -111 237 C-168.17178253 236.55792688 -225.47395218 237.49500518 -282 247 Z M-344 298 C-336.54420178 315.12640709 -327.3452289 330.90877367 -315 345 C-314.01746168 346.16231619 -313.03712974 347.32649981 -312.05859375 348.4921875 C-303.43741706 358.72958038 -294.52108491 367.67486148 -284 376 C-283.03449219 376.78246094 -282.06898438 377.56492187 -281.07421875 378.37109375 C-240.34932094 410.71297575 -189.67683613 427.53003708 -137.875 427.3125 C-136.5210463 427.30976578 -136.5210463 427.30976578 -135.13973999 427.30697632 C-121.55058877 427.2608166 -108.3502336 426.72915625 -95 424 C-94.11473633 423.82839355 -93.22947266 423.65678711 -92.31738281 423.47998047 C-66.19293355 418.34232516 -42.22305121 408.87886026 -19 396 C-19 395.01 -19 394.02 -19 393 C-20.94584964 391.10564009 -20.94584964 391.10564009 -23.5625 389.1875 C-45.66704247 371.66908039 -63.07460728 350.46706502 -77.96948242 326.63134766 C-78.95478609 325.07157531 -79.97662503 323.53506246 -81 322 C-83.81776346 321.7290507 -86.41304204 321.65318751 -89.23022461 321.70703125 C-90.08592985 321.71133274 -90.94163509 321.71563423 -91.8232708 321.72006607 C-93.69471552 321.73139309 -95.56612755 321.74970342 -97.4374485 321.77402496 C-100.43707749 321.81295073 -103.43637223 321.83419507 -106.436203 321.85076904 C-110.71383512 321.87591759 -114.99132187 321.90827485 -119.26885986 321.94616699 C-130.33140164 322.04048814 -141.39412673 322.0672972 -152.45703125 322.078125 C-153.54225319 322.07928566 -154.62747513 322.08044632 -155.74558258 322.08164215 C-179.06191305 322.09358758 -202.22891099 321.31506602 -225.46069336 319.22784424 C-228.01553159 318.9986064 -230.57109797 318.77958964 -233.12695312 318.56201172 C-268.89289701 315.46937383 -305.40329885 310.96392725 -339.3671875 298.8828125 C-341.85322646 297.89402823 -341.85322646 297.89402823 -344 298 Z " fill="#000000" transform="translate(368,35)"/>
</svg>
