<svg width="81" height="51" viewBox="0 0 81 51" fill="none" xmlns="http://www.w3.org/2000/svg">
<path d="M23.3281 9.53516C23.3281 9.74349 23.2891 9.95833 23.2109 10.1797C23.1458 10.401 23.0612 10.6029 22.957 10.7852C22.7878 10.8112 22.6315 10.8698 22.4883 10.9609C22.3581 11.0521 22.2539 11.1107 22.1758 11.1367C22.0065 11.1628 21.8047 11.1758 21.5703 11.1758C21.349 11.1628 21.1471 11.1628 20.9648 11.1758C20.6133 11.2018 20.2617 11.2409 19.9102 11.293C19.5716 11.3451 19.2331 11.4102 18.8945 11.4883C18.8685 11.4883 18.8424 11.4948 18.8164 11.5078C18.7904 11.5078 18.7773 11.5208 18.7773 11.5469C18.7773 11.5729 18.7839 11.599 18.7969 11.625C18.8099 11.651 18.8164 11.6771 18.8164 11.7031C18.8164 11.7422 18.7773 11.7617 18.6992 11.7617C18.556 11.7617 18.4583 11.7161 18.4062 11.625C17.9896 11.7292 17.5729 11.8398 17.1562 11.957C16.7396 12.0612 16.3229 12.1654 15.9062 12.2695C15.6979 12.3086 15.4896 12.3477 15.2812 12.3867C15.0859 12.4258 14.8841 12.4779 14.6758 12.543C14.5716 12.569 14.4674 12.6146 14.3633 12.6797L14.0508 12.875C13.9857 12.862 13.9271 12.8555 13.875 12.8555C13.8229 12.8424 13.7708 12.8359 13.7188 12.8359C13.4974 12.8359 13.263 12.8815 13.0156 12.9727C12.7682 13.0508 12.5534 13.1615 12.3711 13.3047H12.2344C12.1042 13.3047 12.013 13.2852 11.9609 13.2461C11.8438 13.2331 11.7721 13.2721 11.7461 13.3633C11.7201 13.4414 11.6745 13.513 11.6094 13.5781C11.1667 13.6172 10.7305 13.6953 10.3008 13.8125C9.87109 13.9297 9.44792 14.0599 9.03125 14.2031C8.61458 14.3333 8.19141 14.4701 7.76172 14.6133C7.34505 14.7435 6.92188 14.8477 6.49219 14.9258C6.4401 15.1862 6.41406 15.4857 6.41406 15.8242C6.41406 16.0846 6.43359 16.3841 6.47266 16.7227C6.52474 17.0612 6.62891 17.3477 6.78516 17.582V17.6211C6.78516 17.6862 6.75911 17.7318 6.70703 17.7578C6.65495 17.7839 6.62891 17.8294 6.62891 17.8945C6.62891 18.2331 6.66146 18.5521 6.72656 18.8516C6.80469 19.151 6.88281 19.444 6.96094 19.7305C7.03906 20.0169 7.11068 20.3034 7.17578 20.5898C7.25391 20.8763 7.29297 21.1693 7.29297 21.4688C7.29297 21.5469 7.28646 21.6185 7.27344 21.6836C7.27344 21.7617 7.26693 21.8398 7.25391 21.918C7.29297 22.0352 7.35807 22.1328 7.44922 22.2109C7.54036 22.2891 7.61849 22.3802 7.68359 22.4844C7.69661 22.5495 7.70312 22.6081 7.70312 22.6602V22.8555C7.70312 23.0768 7.67708 23.2721 7.625 23.4414C7.57292 23.6107 7.50781 23.7669 7.42969 23.9102C7.35156 24.0664 7.26693 24.2161 7.17578 24.3594C7.08464 24.5156 7 24.6849 6.92188 24.8672C6.79167 24.8932 6.6875 24.9062 6.60938 24.9062C6.41406 24.9062 6.2513 24.8542 6.12109 24.75C6.00391 24.6458 5.89974 24.5156 5.80859 24.3594C5.71745 24.2161 5.6263 24.0664 5.53516 23.9102C5.45703 23.7539 5.35938 23.6237 5.24219 23.5195C5.25521 23.4544 5.26172 23.3958 5.26172 23.3438C5.27474 23.2917 5.28125 23.2331 5.28125 23.168C5.28125 22.9076 5.23568 22.6536 5.14453 22.4062C5.06641 22.1589 4.97526 21.9245 4.87109 21.7031C4.85807 21.2604 4.8125 20.8242 4.73438 20.3945C4.65625 19.9648 4.54557 19.5417 4.40234 19.125C4.42839 18.9688 4.44792 18.819 4.46094 18.6758C4.47396 18.5195 4.48047 18.3698 4.48047 18.2266C4.48047 17.849 4.46094 17.4714 4.42188 17.0938C4.38281 16.7161 4.3763 16.3385 4.40234 15.9609C4.36328 15.8958 4.32422 15.8438 4.28516 15.8047C4.24609 15.7526 4.21354 15.694 4.1875 15.6289H4.10938C3.91406 15.6289 3.72526 15.6484 3.54297 15.6875C3.36068 15.7135 3.17839 15.7266 2.99609 15.7266C2.93099 15.7266 2.8724 15.7266 2.82031 15.7266C2.76823 15.7135 2.70964 15.7005 2.64453 15.6875C2.5013 15.5443 2.39062 15.3815 2.3125 15.1992C2.23438 15.0169 2.19531 14.8281 2.19531 14.6328C2.19531 14.3464 2.27344 14.0859 2.42969 13.8516C2.75521 13.7734 3.07422 13.6823 3.38672 13.5781C3.71224 13.4609 4.02474 13.3242 4.32422 13.168C4.36328 12.9727 4.38281 12.7773 4.38281 12.582C4.39583 12.3867 4.46745 12.2044 4.59766 12.0352C4.55859 11.931 4.49349 11.8398 4.40234 11.7617C4.32422 11.6706 4.28516 11.5664 4.28516 11.4492C4.28516 11.3841 4.29818 11.2995 4.32422 11.1953C4.45443 11.0521 4.54557 10.8698 4.59766 10.6484C4.64974 10.4271 4.69531 10.1927 4.73438 9.94531C4.77344 9.69792 4.8125 9.45052 4.85156 9.20312C4.90365 8.95573 4.98828 8.73438 5.10547 8.53906C5.07943 8.4349 5.0599 8.32422 5.04688 8.20703C5.03385 8.07682 5.02734 7.95964 5.02734 7.85547C5.02734 7.69922 5.03385 7.54297 5.04688 7.38672C5.07292 7.21745 5.11198 7.0612 5.16406 6.91797C5.02083 6.7487 4.90365 6.55339 4.8125 6.33203C4.72135 6.09766 4.67578 5.86979 4.67578 5.64844C4.67578 5.21875 4.88411 4.94531 5.30078 4.82812C5.28776 4.77604 5.27474 4.73047 5.26172 4.69141C5.26172 4.65234 5.26172 4.61328 5.26172 4.57422C5.26172 4.45703 5.29427 4.34635 5.35938 4.24219C5.42448 4.13802 5.47656 4.03385 5.51562 3.92969C5.45052 3.76042 5.41797 3.61719 5.41797 3.5C5.41797 3.39583 5.4375 3.30469 5.47656 3.22656C5.51562 3.13542 5.54818 3.03776 5.57422 2.93359C5.61328 2.80339 5.63932 2.6862 5.65234 2.58203C5.67839 2.47786 5.71745 2.38672 5.76953 2.30859C5.82161 2.23047 5.88672 2.17188 5.96484 2.13281C6.05599 2.09375 6.19271 2.07422 6.375 2.07422C6.66146 2.07422 6.9349 2.16536 7.19531 2.34766C7.46875 2.51693 7.67708 2.71224 7.82031 2.93359C7.96354 2.92057 8.08724 2.89453 8.19141 2.85547C8.30859 2.80339 8.41276 2.75781 8.50391 2.71875C8.60807 2.67969 8.71224 2.64714 8.81641 2.62109C8.93359 2.58203 9.07031 2.56901 9.22656 2.58203C9.26562 2.49089 9.33073 2.43229 9.42188 2.40625C9.52604 2.36719 9.63021 2.34115 9.73438 2.32812C9.83854 2.30208 9.9362 2.26953 10.0273 2.23047C10.1185 2.19141 10.1771 2.11979 10.2031 2.01562C10.2552 2.05469 10.3138 2.07422 10.3789 2.07422C10.444 2.07422 10.5091 2.06771 10.5742 2.05469C10.6393 2.02865 10.7109 2.01562 10.7891 2.01562C10.8672 2.01562 10.9323 2.04167 10.9844 2.09375C11.3229 1.91146 11.681 1.78125 12.0586 1.70312C12.4492 1.61198 12.8333 1.5599 13.2109 1.54688C14.1094 1.05208 15.0534 0.713542 16.043 0.53125C17.0456 0.348958 18.0482 0.257812 19.0508 0.257812C19.194 0.257812 19.3307 0.257812 19.4609 0.257812C19.6042 0.244792 19.7409 0.251302 19.8711 0.277344C20.0143 0.303385 20.1706 0.348958 20.3398 0.414062C20.5221 0.479167 20.6979 0.557292 20.8672 0.648438C21.0495 0.739583 21.2188 0.84375 21.375 0.960938C21.5312 1.0651 21.6615 1.16276 21.7656 1.25391C21.8698 1.48828 21.9219 1.71615 21.9219 1.9375C21.9219 2.04167 21.9154 2.14583 21.9023 2.25C21.8893 2.34115 21.8828 2.4388 21.8828 2.54297C21.8828 2.69922 21.9154 2.875 21.9805 3.07031C21.9414 3.05729 21.8763 3.05078 21.7852 3.05078C21.668 3.05078 21.5703 3.07682 21.4922 3.12891C21.4141 3.18099 21.3424 3.23958 21.2773 3.30469C21.2122 3.36979 21.1471 3.42839 21.082 3.48047C21.0299 3.53255 20.9779 3.55859 20.9258 3.55859C20.8216 3.55859 20.7305 3.53906 20.6523 3.5C20.5872 3.46094 20.5156 3.42188 20.4375 3.38281C20.3724 3.33073 20.3008 3.29167 20.2227 3.26562C20.1445 3.22656 20.0534 3.21354 19.9492 3.22656V3.14844C19.9492 3.00521 19.9036 2.91406 19.8125 2.875C19.7214 2.82292 19.6497 2.7513 19.5977 2.66016C19.4023 2.64714 19.207 2.62109 19.0117 2.58203C18.8294 2.54297 18.6406 2.52344 18.4453 2.52344C18.1849 2.52344 17.9831 2.61458 17.8398 2.79688C17.7747 2.77083 17.7161 2.73828 17.6641 2.69922C17.625 2.66016 17.5664 2.64714 17.4883 2.66016H17.4297C16.7266 2.66016 16.0365 2.73828 15.3594 2.89453C14.6823 3.03776 14.0117 3.22005 13.3477 3.44141C12.6836 3.64974 12.0195 3.8776 11.3555 4.125C10.6914 4.3724 10.0273 4.58724 9.36328 4.76953C9.20703 4.97786 9.04427 5.13411 8.875 5.23828C8.70573 5.32943 8.53646 5.40755 8.36719 5.47266C8.21094 5.53776 8.05469 5.60286 7.89844 5.66797C7.74219 5.73307 7.60547 5.83724 7.48828 5.98047C7.38411 6.1237 7.29948 6.32552 7.23438 6.58594C7.18229 6.83333 7.16927 7.17839 7.19531 7.62109C7.13021 7.69922 7.09115 7.78385 7.07812 7.875C7.0651 7.96615 7.05208 8.05729 7.03906 8.14844C7.02604 8.22656 7.00651 8.30469 6.98047 8.38281C6.95443 8.46094 6.90885 8.53255 6.84375 8.59766C6.86979 8.72786 6.88932 8.85807 6.90234 8.98828C6.91536 9.11849 6.92188 9.2487 6.92188 9.37891C6.92188 9.92578 6.83073 10.4596 6.64844 10.9805C6.71354 11.0846 6.74609 11.2018 6.74609 11.332C6.74609 11.4753 6.72656 11.6055 6.6875 11.7227C6.64844 11.8398 6.62891 11.9701 6.62891 12.1133C6.62891 12.2565 6.65495 12.3737 6.70703 12.4648C6.78516 12.4648 6.83073 12.4909 6.84375 12.543H6.96094C7.19531 12.543 7.39714 12.4844 7.56641 12.3672C7.73568 12.25 7.91797 12.1914 8.11328 12.1914C8.15234 12.1914 8.19792 12.2044 8.25 12.2305C8.30208 12.2565 8.34766 12.2695 8.38672 12.2695C8.47786 12.2695 8.51693 12.237 8.50391 12.1719C8.49089 12.1068 8.52344 12.0612 8.60156 12.0352L9.30469 11.918C9.7474 11.8398 10.1641 11.7487 10.5547 11.6445C10.9583 11.5273 11.3555 11.3581 11.7461 11.1367C11.8372 11.1758 11.9414 11.1953 12.0586 11.1953C12.1628 11.1953 12.2734 11.1823 12.3906 11.1562C12.5078 11.1172 12.6185 11.0977 12.7227 11.0977C12.8138 11.0977 12.8854 11.1107 12.9375 11.1367C13.0156 11.0846 13.1133 11.0456 13.2305 11.0195C13.3477 10.9805 13.4128 10.9023 13.4258 10.7852H13.4648C13.5169 10.7852 13.556 10.7982 13.582 10.8242C13.6081 10.8503 13.6471 10.8633 13.6992 10.8633H13.7773C14.0508 10.7331 14.2982 10.6354 14.5195 10.5703C14.8841 10.4792 15.2747 10.401 15.6914 10.3359C16.1081 10.2578 16.4792 10.1276 16.8047 9.94531C17.1823 9.94531 17.5469 9.88672 17.8984 9.76953C18.263 9.63932 18.6276 9.57422 18.9922 9.57422C19.1615 9.57422 19.3177 9.60026 19.4609 9.65234C19.5911 9.5612 19.7409 9.49609 19.9102 9.45703C20.0924 9.41797 20.2422 9.34635 20.3594 9.24219C20.4375 9.25521 20.5156 9.26823 20.5938 9.28125C20.6849 9.28125 20.776 9.28125 20.8672 9.28125C21.2578 9.28125 21.6289 9.22917 21.9805 9.125C22.3451 9.00781 22.7161 8.92318 23.0938 8.87109C23.1849 8.97526 23.2435 9.08594 23.2695 9.20312C23.3086 9.30729 23.3281 9.41797 23.3281 9.53516ZM32.332 8.57812V8.65625C32.2409 8.68229 32.1953 8.7474 32.1953 8.85156C32.0521 8.91667 31.9023 8.96875 31.7461 9.00781C31.5898 9.03385 31.4401 9.07943 31.2969 9.14453C31.1536 9.13151 31.0039 9.125 30.8477 9.125C30.7044 9.11198 30.5612 9.10547 30.418 9.10547C30.0273 9.10547 29.6367 9.11849 29.2461 9.14453C28.8555 9.17057 28.4648 9.17057 28.0742 9.14453C27.8919 9.2487 27.6901 9.33333 27.4688 9.39844C27.2604 9.45052 27.0586 9.47656 26.8633 9.47656C26.707 9.47656 26.5703 9.45703 26.4531 9.41797C26.1406 9.57422 25.7956 9.70443 25.418 9.80859C25.0534 9.91276 24.6823 10.0169 24.3047 10.1211C23.9271 10.2122 23.5625 10.3229 23.2109 10.4531C22.8724 10.5703 22.5729 10.7396 22.3125 10.9609C22.2865 11.1432 22.2669 11.3255 22.2539 11.5078C22.2409 11.6771 22.2344 11.8464 22.2344 12.0156C22.2344 12.1979 22.2409 12.3672 22.2539 12.5234C22.2799 12.6797 22.3255 12.8359 22.3906 12.9922C22.4557 13.0182 22.5273 13.0378 22.6055 13.0508C22.6966 13.0638 22.7747 13.0703 22.8398 13.0703C22.9049 13.0703 22.9701 13.0638 23.0352 13.0508C23.1003 13.0247 23.1458 12.9792 23.1719 12.9141C23.3672 12.888 23.5625 12.8815 23.7578 12.8945C23.9531 12.8945 24.1484 12.8945 24.3438 12.8945C24.5391 12.8945 24.7279 12.888 24.9102 12.875C25.1055 12.862 25.2943 12.8294 25.4766 12.7773C25.6849 12.7253 25.8867 12.6927 26.082 12.6797C26.2904 12.6667 26.4922 12.6536 26.6875 12.6406C26.8828 12.6276 27.0846 12.6081 27.293 12.582C27.5013 12.543 27.7161 12.4714 27.9375 12.3672C28.1068 12.4323 28.276 12.4648 28.4453 12.4648C28.6276 12.4648 28.8034 12.4779 28.9727 12.5039C29.0638 12.569 29.1354 12.6406 29.1875 12.7188C29.2526 12.7969 29.2852 12.888 29.2852 12.9922C29.2852 13.1745 29.2201 13.3568 29.0898 13.5391C28.9596 13.7214 28.8555 13.8906 28.7773 14.0469H28.5625C28.25 14.0469 27.944 14.0924 27.6445 14.1836C27.3581 14.2617 27.0651 14.3594 26.7656 14.4766C26.4792 14.5807 26.1862 14.6784 25.8867 14.7695C25.6003 14.8477 25.3008 14.8867 24.9883 14.8867C24.9362 14.8867 24.9036 14.9193 24.8906 14.9844C24.8906 15.0365 24.8776 15.0755 24.8516 15.1016C24.7865 15.0885 24.6888 15.082 24.5586 15.082C24.2591 15.082 23.9727 15.1146 23.6992 15.1797C23.4258 15.2448 23.1458 15.2773 22.8594 15.2773C22.7812 15.2773 22.7031 15.2773 22.625 15.2773C22.5469 15.2643 22.4688 15.2513 22.3906 15.2383C22.3255 15.3424 22.2409 15.4141 22.1367 15.4531C22.0326 15.4792 21.9349 15.5312 21.8438 15.6094C21.8047 15.7266 21.7786 15.8698 21.7656 16.0391C21.7656 16.2083 21.7591 16.3841 21.7461 16.5664C21.7461 16.7357 21.7331 16.8984 21.707 17.0547C21.681 17.2109 21.6289 17.3346 21.5508 17.4258C21.5638 17.4909 21.6159 17.5169 21.707 17.5039C21.7982 17.4779 21.8438 17.5169 21.8438 17.6211C21.8438 17.7383 21.8307 17.862 21.8047 17.9922C21.7786 18.1224 21.7656 18.2526 21.7656 18.3828C21.7656 18.6302 21.7917 18.9036 21.8438 19.2031C21.9089 19.4896 22 19.7565 22.1172 20.0039C22.2474 20.2513 22.4167 20.4596 22.625 20.6289C22.8333 20.7852 23.0938 20.8633 23.4062 20.8633C23.6146 20.8633 23.8099 20.8242 23.9922 20.7461C24.1745 20.668 24.3242 20.5378 24.4414 20.3555L24.5391 20.3359C24.5911 20.3359 24.6367 20.3424 24.6758 20.3555C24.7279 20.3685 24.7799 20.375 24.832 20.375C24.9102 20.375 25.0078 20.3294 25.125 20.2383C25.2552 20.1341 25.3919 20.0169 25.5352 19.8867C25.6914 19.7565 25.8477 19.6328 26.0039 19.5156C26.1602 19.3854 26.3099 19.2943 26.4531 19.2422C26.5443 19.0599 26.6289 18.8776 26.707 18.6953C26.7982 18.513 26.9284 18.3698 27.0977 18.2656V17.6992C27.2279 17.556 27.3646 17.4258 27.5078 17.3086C27.6641 17.1914 27.7812 17.0417 27.8594 16.8594C27.9245 16.8854 27.9831 16.9049 28.0352 16.918C28.1003 16.931 28.1654 16.9375 28.2305 16.9375C28.2956 16.9375 28.3607 16.931 28.4258 16.918C28.5039 16.9049 28.5755 16.8854 28.6406 16.8594C28.7448 17.0026 28.8229 17.1654 28.875 17.3477C28.9401 17.5169 29.0182 17.6797 29.1094 17.8359C28.9922 18.0703 28.8555 18.3503 28.6992 18.6758C28.543 19.0013 28.3737 19.3268 28.1914 19.6523C28.0091 19.9779 27.8138 20.2904 27.6055 20.5898C27.4102 20.8763 27.2148 21.0977 27.0195 21.2539C26.9805 21.293 26.8958 21.3385 26.7656 21.3906C26.6224 21.4948 26.4922 21.5924 26.375 21.6836C26.2578 21.7878 26.1471 21.9049 26.043 22.0352C25.6654 22.1523 25.3008 22.3086 24.9492 22.5039C24.6107 22.6992 24.2721 22.888 23.9336 23.0703C23.7773 23.0312 23.6081 23.0117 23.4258 23.0117C23.2695 23.0117 23.1133 23.0182 22.957 23.0312C22.8008 23.0573 22.6315 23.0703 22.4492 23.0703C22.3971 23.0052 22.319 22.9596 22.2148 22.9336C22.1237 22.9206 22.0911 22.8555 22.1172 22.7383C21.6745 22.7122 21.3164 22.5885 21.043 22.3672C20.7695 22.1589 20.5352 21.8984 20.3398 21.5859C20.1576 21.2734 20.0078 20.9349 19.8906 20.5703C19.7734 20.2057 19.6497 19.8542 19.5195 19.5156V19.457C19.5195 19.3919 19.5456 19.3529 19.5977 19.3398C19.6497 19.3268 19.6758 19.2878 19.6758 19.2227C19.6758 19.1966 19.6693 19.1771 19.6562 19.1641C19.6172 19.0208 19.5846 18.8971 19.5586 18.793C19.5326 18.6888 19.5195 18.5651 19.5195 18.4219C19.5195 18.2135 19.5326 18.0117 19.5586 17.8164C19.5846 17.6081 19.5977 17.3997 19.5977 17.1914C19.5977 16.9831 19.5716 16.8008 19.5195 16.6445C19.5716 16.5794 19.6172 16.4948 19.6562 16.3906C19.6823 16.2734 19.7018 16.1562 19.7148 16.0391C19.7279 15.9219 19.7344 15.8047 19.7344 15.6875C19.7474 15.5703 19.7669 15.4661 19.793 15.375C19.7409 15.2318 19.6953 15.1081 19.6562 15.0039C19.6172 14.8867 19.5977 14.75 19.5977 14.5938V14.457C19.7279 14.2357 19.8385 14.0078 19.9297 13.7734C20.0208 13.5391 20.1185 13.2982 20.2227 13.0508V12.9922C20.2227 12.6146 20.2096 12.237 20.1836 11.8594C20.1576 11.4818 20.1445 11.1042 20.1445 10.7266V10.3555C20.1445 10.2253 20.151 10.1016 20.1641 9.98438C20.2682 9.93229 20.3464 9.86068 20.3984 9.76953C20.4505 9.67839 20.5286 9.60677 20.6328 9.55469H21.2773L21.3945 9.35938C21.4336 9.29427 21.4596 9.22266 21.4727 9.14453C21.6159 9.10547 21.7526 9.05339 21.8828 8.98828C22.026 8.91016 22.1562 8.83203 22.2734 8.75391C22.4557 8.64974 22.6185 8.55859 22.7617 8.48047C22.918 8.38932 23.0677 8.31771 23.2109 8.26562C23.3672 8.20052 23.5299 8.14844 23.6992 8.10938C23.8685 8.07031 24.0638 8.03776 24.2852 8.01172C24.3893 8.01172 24.4544 7.99219 24.4805 7.95312C24.5195 7.91406 24.5716 7.86849 24.6367 7.81641C24.793 7.84245 24.9492 7.86849 25.1055 7.89453C25.2617 7.90755 25.418 7.91406 25.5742 7.91406C25.8867 7.91406 26.1797 7.85547 26.4531 7.73828C26.8438 7.73828 27.2279 7.73177 27.6055 7.71875C27.9961 7.70573 28.3867 7.69922 28.7773 7.69922C29.1159 7.69922 29.4544 7.71224 29.793 7.73828C30.1315 7.76432 30.4635 7.8099 30.7891 7.875C30.9062 7.83594 31.0365 7.81641 31.1797 7.81641C31.3359 7.81641 31.4922 7.83594 31.6484 7.875C31.8177 7.90104 31.9805 7.90104 32.1367 7.875C32.1497 8.01823 32.1823 8.14193 32.2344 8.24609C32.2995 8.33724 32.332 8.44792 32.332 8.57812ZM56.375 17.6016C56.349 17.7969 56.2773 17.9466 56.1602 18.0508C56.056 18.1549 55.9323 18.2526 55.7891 18.3438C55.724 18.3307 55.6589 18.3242 55.5938 18.3242C55.5417 18.3112 55.4831 18.3047 55.418 18.3047C55.0143 18.2917 54.6302 18.3438 54.2656 18.4609C53.9141 18.5781 53.5495 18.6628 53.1719 18.7148C53.0417 18.7409 52.918 18.7539 52.8008 18.7539C52.6966 18.7409 52.5859 18.7474 52.4688 18.7734C52.0521 18.8385 51.6094 18.8906 51.1406 18.9297C50.6719 18.9688 50.2031 19.0208 49.7344 19.0859C49.2656 19.138 48.8034 19.2096 48.3477 19.3008C47.9049 19.3789 47.4883 19.4961 47.0977 19.6523C47.0586 19.6263 47.0195 19.6003 46.9805 19.5742C46.9414 19.5352 46.8958 19.5156 46.8438 19.5156C46.7135 19.5156 46.5898 19.5352 46.4727 19.5742C46.3555 19.6133 46.2383 19.6263 46.1211 19.6133C45.9909 19.6914 45.8477 19.75 45.6914 19.7891C45.5482 19.8151 45.3984 19.8411 45.2422 19.8672C45.099 19.8802 44.9557 19.9062 44.8125 19.9453C44.6693 19.9844 44.5326 20.056 44.4023 20.1602C44.2982 20.1081 44.168 20.082 44.0117 20.082C43.8685 20.069 43.7708 20.0169 43.7188 19.9258C43.4193 20.069 43.1003 20.1602 42.7617 20.1992C42.4362 20.2383 42.1042 20.2513 41.7656 20.2383C41.5443 20.2253 41.2904 20.1927 41.0039 20.1406C40.7174 20.0885 40.431 20.0169 40.1445 19.9258C39.8581 19.8216 39.5911 19.7044 39.3438 19.5742C39.0964 19.431 38.9076 19.2617 38.7773 19.0664C38.6862 18.9362 38.6211 18.793 38.582 18.6367C38.543 18.4805 38.4518 18.3633 38.3086 18.2852C38.3477 17.9857 38.3932 17.6927 38.4453 17.4062C38.4974 17.1198 38.5495 16.8268 38.6016 16.5273C38.862 16.306 39.1094 16.0716 39.3438 15.8242C39.5781 15.5768 39.7995 15.3164 40.0078 15.043C40.2552 14.9258 40.4831 14.7826 40.6914 14.6133C40.9128 14.444 41.1276 14.2747 41.3359 14.1055C41.5573 13.9232 41.7721 13.7474 41.9805 13.5781C42.2018 13.4089 42.4362 13.2591 42.6836 13.1289C42.7227 13.0378 42.7747 12.9661 42.8398 12.9141C42.918 12.849 42.9961 12.7904 43.0742 12.7383C43.1523 12.6732 43.224 12.6081 43.2891 12.543C43.3542 12.4648 43.3997 12.3737 43.4258 12.2695C43.8815 11.9961 44.2786 11.651 44.6172 11.2344C44.9557 10.8177 45.1771 10.349 45.2812 9.82812C45.0599 9.64583 44.806 9.52865 44.5195 9.47656C44.2461 9.41146 43.9596 9.36589 43.6602 9.33984C43.3997 9.32682 43.1263 9.32682 42.8398 9.33984C42.5664 9.35286 42.2865 9.34635 42 9.32031C41.7135 9.41146 41.4141 9.47005 41.1016 9.49609C40.8021 9.52214 40.5026 9.54818 40.2031 9.57422C39.9036 9.58724 39.6042 9.6263 39.3047 9.69141C39.0182 9.74349 38.7383 9.84766 38.4648 10.0039C38.4128 10.0039 38.3607 9.9974 38.3086 9.98438C38.2695 9.97135 38.224 9.96484 38.1719 9.96484C37.7552 9.95182 37.3646 10.0365 37 10.2188C36.6354 10.388 36.2773 10.5573 35.9258 10.7266C35.8997 10.7786 35.8867 10.8177 35.8867 10.8438C35.8867 10.9219 35.8997 11 35.9258 11.0781C35.9648 11.1432 35.9844 11.2148 35.9844 11.293C35.9714 11.306 35.9648 11.319 35.9648 11.332C35.9648 11.3451 35.9583 11.3581 35.9453 11.3711C35.9323 11.4362 35.9128 11.4948 35.8867 11.5469C35.8737 11.599 35.8542 11.6576 35.8281 11.7227C35.6849 12.1393 35.6068 12.5495 35.5938 12.9531C35.5807 13.2917 35.5807 13.6237 35.5938 13.9492C35.6068 14.2747 35.6068 14.6068 35.5938 14.9453C35.5677 15.362 35.5026 15.7526 35.3984 16.1172C35.4635 16.4297 35.5221 16.7617 35.5742 17.1133C35.6263 17.4518 35.6914 17.7904 35.7695 18.1289C35.8477 18.4674 35.9388 18.7995 36.043 19.125C36.1602 19.4375 36.3099 19.737 36.4922 20.0234C36.4792 20.0495 36.4857 20.069 36.5117 20.082C36.5378 20.0951 36.5638 20.1016 36.5898 20.1016H36.7461C36.8112 20.1016 36.8372 20.1276 36.8242 20.1797C36.8503 20.2188 36.8698 20.2578 36.8828 20.2969C36.8958 20.3229 36.9219 20.349 36.9609 20.375C36.987 20.4141 36.987 20.4661 36.9609 20.5312C36.9479 20.7917 36.8828 21.0326 36.7656 21.2539C36.6484 21.4753 36.5768 21.7161 36.5508 21.9766C36.3945 22.0156 36.2513 22.0352 36.1211 22.0352C35.8997 22.0221 35.7044 21.957 35.5352 21.8398C35.3659 21.7357 35.2096 21.6055 35.0664 21.4492C34.9232 21.293 34.7865 21.1367 34.6562 20.9805C34.526 20.8112 34.3828 20.668 34.2266 20.5508C34.1354 20.1862 34.0443 19.7826 33.9531 19.3398C33.875 18.8971 33.7383 18.5195 33.543 18.207C33.5951 18.0898 33.6211 17.9466 33.6211 17.7773C33.6341 17.5169 33.6081 17.263 33.543 17.0156C33.4909 16.7552 33.4779 16.4948 33.5039 16.2344C33.5039 16.0911 33.5169 15.9479 33.543 15.8047C33.582 15.6615 33.6081 15.5182 33.6211 15.375C33.6341 15.1536 33.6081 14.9388 33.543 14.7305C33.4909 14.5221 33.4714 14.3073 33.4844 14.0859C33.4974 13.9818 33.5169 13.8841 33.543 13.793C33.582 13.6888 33.6341 13.5977 33.6992 13.5195C33.6341 13.3633 33.6146 13.2135 33.6406 13.0703C33.6536 12.849 33.6797 12.6406 33.7188 12.4453C33.7578 12.25 33.7839 12.0547 33.7969 11.8594C33.7969 11.7552 33.7904 11.6576 33.7773 11.5664C33.7643 11.4622 33.7448 11.3646 33.7188 11.2734L33.543 11.2148C33.4648 11.2148 33.3867 11.2344 33.3086 11.2734C33.2435 11.3125 33.1849 11.3581 33.1328 11.4102C33.0807 11.4622 33.0352 11.5078 32.9961 11.5469C32.957 11.5729 32.918 11.5859 32.8789 11.5859C32.8529 11.5859 32.8203 11.5859 32.7812 11.5859C32.7552 11.5729 32.7292 11.5664 32.7031 11.5664C32.6771 11.5664 32.625 11.5924 32.5469 11.6445C32.4818 11.6966 32.3971 11.7552 32.293 11.8203C32.2018 11.8724 32.1107 11.931 32.0195 11.9961C31.9284 12.0482 31.8568 12.0807 31.8047 12.0938C31.6615 12.0677 31.5443 12.0221 31.4531 11.957C31.375 11.8789 31.2969 11.8073 31.2188 11.7422C31.1536 11.6641 31.082 11.599 31.0039 11.5469C30.9258 11.4818 30.8281 11.4557 30.7109 11.4688C30.6719 11.3906 30.6523 11.306 30.6523 11.2148C30.6393 11.1237 30.6393 11.0326 30.6523 10.9414V10.6289C30.7435 10.4596 30.8672 10.3229 31.0234 10.2188C31.1667 10.1016 31.3229 10.0039 31.4922 9.92578L32 9.69141C32.1693 9.61328 32.3255 9.51562 32.4688 9.39844H32.6445C32.8789 9.41146 33.0807 9.36589 33.25 9.26172C33.4323 9.15755 33.6016 9.04036 33.7578 8.91016C33.9141 8.76693 34.0703 8.6237 34.2266 8.48047C34.3958 8.33724 34.5781 8.22656 34.7734 8.14844C34.9167 8.21354 35.0664 8.27214 35.2227 8.32422C35.3789 8.36328 35.5417 8.38932 35.7109 8.40234C35.8802 8.40234 36.056 8.3763 36.2383 8.32422C36.4206 8.27214 36.5638 8.17448 36.668 8.03125C36.7331 8.05729 36.7852 8.07682 36.8242 8.08984C36.8763 8.08984 36.9349 8.08984 37 8.08984C37.1953 8.10286 37.3906 8.07682 37.5859 8.01172C37.7812 7.93359 37.9701 7.84245 38.1523 7.73828C38.4128 7.7513 38.6667 7.73828 38.9141 7.69922C39.1745 7.64714 39.4284 7.59505 39.6758 7.54297C39.9362 7.49089 40.1901 7.44531 40.4375 7.40625C40.6979 7.35417 40.9583 7.33464 41.2188 7.34766C41.6484 7.36068 42.0716 7.32161 42.4883 7.23047C42.9049 7.13932 43.3281 7.10677 43.7578 7.13281C44.0573 7.14583 44.3503 7.17188 44.6367 7.21094C44.9362 7.23698 45.2357 7.24349 45.5352 7.23047C45.7044 7.30859 45.8542 7.38021 45.9844 7.44531C46.1276 7.4974 46.3034 7.51042 46.5117 7.48438C46.9284 7.83594 47.306 8.24609 47.6445 8.71484V9.04688C47.6315 9.34635 47.5794 9.63932 47.4883 9.92578C47.3971 10.2122 47.2865 10.4987 47.1562 10.7852C47.0391 11.0586 46.9089 11.332 46.7656 11.6055C46.6224 11.8659 46.4857 12.1263 46.3555 12.3867C45.5091 13.1549 44.6628 13.9167 43.8164 14.6719C42.9701 15.4271 42.0977 16.1562 41.1992 16.8594C41.1732 16.9896 41.1341 17.1068 41.082 17.2109C41.043 17.3151 41.0169 17.4258 41.0039 17.543C41.0039 17.6081 41.0104 17.6602 41.0234 17.6992C41.1146 17.7253 41.1927 17.7773 41.2578 17.8555C41.3359 17.9206 41.362 18.0117 41.3359 18.1289H41.5117C41.5768 18.1289 41.6094 18.1549 41.6094 18.207L41.9219 18.2266C42.4167 18.2526 42.9115 18.2396 43.4062 18.1875C43.901 18.1354 44.3958 18.0768 44.8906 18.0117C45.3984 17.9466 45.8997 17.888 46.3945 17.8359C46.8893 17.7708 47.3841 17.7318 47.8789 17.7188C47.9961 17.6797 48.1198 17.6471 48.25 17.6211C48.3802 17.5951 48.4974 17.543 48.6016 17.4648H48.6602C48.7513 17.4648 48.8164 17.4909 48.8555 17.543C48.9076 17.5951 48.9792 17.6276 49.0703 17.6406C49.1354 17.6406 49.2005 17.6276 49.2656 17.6016C49.3438 17.5755 49.4219 17.556 49.5 17.543C49.6823 17.4909 49.8711 17.4583 50.0664 17.4453C50.2747 17.4323 50.4766 17.4128 50.6719 17.3867C51.4271 17.3216 52.1758 17.2826 52.918 17.2695C53.6602 17.2435 54.4023 17.1458 55.1445 16.9766C55.2096 17.0677 55.3008 17.1328 55.418 17.1719C55.5352 17.1979 55.6589 17.2305 55.7891 17.2695C55.9193 17.2956 56.0365 17.3281 56.1406 17.3672C56.2578 17.4062 56.3359 17.4844 56.375 17.6016ZM63.6797 8.16797C63.6536 8.32422 63.6146 8.46094 63.5625 8.57812C63.5234 8.68229 63.5169 8.82552 63.543 9.00781C63.4128 9.02083 63.3086 9.06641 63.2305 9.14453C63.1654 9.20964 63.1068 9.28776 63.0547 9.37891C63.0156 9.47005 62.9701 9.56771 62.918 9.67188C62.8789 9.76302 62.8268 9.84766 62.7617 9.92578C62.8659 10.3945 62.9245 10.8698 62.9375 11.3516C62.9505 11.8333 62.9831 12.3086 63.0352 12.7773C63.1003 13.3763 63.1979 13.9688 63.3281 14.5547C63.4714 15.1276 63.543 15.7135 63.543 16.3125C63.543 16.4948 63.5365 16.6641 63.5234 16.8203C63.5234 16.9766 63.5234 17.1393 63.5234 17.3086C63.5234 17.4128 63.5234 17.5234 63.5234 17.6406C63.5365 17.7448 63.543 17.849 63.543 17.9531C63.543 18.3307 63.4909 18.7083 63.3867 19.0859C63.2956 19.4635 63.224 19.8411 63.1719 20.2188C63.0156 20.362 62.8789 20.5182 62.7617 20.6875C62.6576 20.8568 62.5469 21.013 62.4297 21.1562C62.3125 21.2995 62.1758 21.4232 62.0195 21.5273C61.8633 21.6445 61.668 21.7227 61.4336 21.7617C61.3945 21.8919 61.3164 21.9896 61.1992 22.0547C61.0951 22.1198 61.0039 22.2109 60.9258 22.3281H60.8867C60.5612 22.3281 60.2812 22.2826 60.0469 22.1914C59.8125 22.1003 59.5911 21.9961 59.3828 21.8789C59.1875 21.7617 58.9857 21.638 58.7773 21.5078C58.569 21.3776 58.3281 21.2734 58.0547 21.1953C57.6901 20.8958 57.3581 20.5703 57.0586 20.2188C56.7591 19.8542 56.4206 19.5286 56.043 19.2422C55.9518 18.9818 55.8281 18.7669 55.6719 18.5977C55.5286 18.4284 55.3854 18.2331 55.2422 18.0117C55.1771 17.9206 55.125 17.8359 55.0859 17.7578C55.0599 17.6797 55.0208 17.5885 54.9688 17.4844C54.9297 17.3802 54.8646 17.3086 54.7734 17.2695C54.6953 17.2305 54.6237 17.1849 54.5586 17.1328C54.4544 16.7292 54.3047 16.3581 54.1094 16.0195C53.9141 15.681 53.6862 15.3555 53.4258 15.043C53.3477 15.1862 53.2826 15.3424 53.2305 15.5117C53.1914 15.668 53.1523 15.8307 53.1133 16C53.0742 16.1562 53.0221 16.319 52.957 16.4883C52.9049 16.6445 52.8333 16.7878 52.7422 16.918V16.9766C52.7422 17.0417 52.7682 17.0807 52.8203 17.0938C52.8724 17.1068 52.8984 17.1458 52.8984 17.2109C52.8984 17.224 52.8919 17.237 52.8789 17.25C52.8789 17.263 52.8789 17.276 52.8789 17.2891C52.8138 17.3411 52.7617 17.4062 52.7227 17.4844C52.6966 17.5625 52.6315 17.6081 52.5273 17.6211C52.5404 17.6862 52.5469 17.7513 52.5469 17.8164V17.9922C52.5469 18.3698 52.5013 18.7474 52.4102 19.125C52.332 19.5026 52.293 19.8867 52.293 20.2773V20.5312C52.293 20.6224 52.2995 20.707 52.3125 20.7852C52.3385 20.8633 52.3776 20.9414 52.4297 21.0195C52.4818 21.0977 52.5078 21.1693 52.5078 21.2344C52.5078 21.3255 52.4688 21.4102 52.3906 21.4883C52.4818 21.5534 52.5859 21.625 52.7031 21.7031C52.8203 21.7812 52.9245 21.8659 53.0156 21.957C53.1198 22.0612 53.2044 22.1654 53.2695 22.2695C53.3346 22.3867 53.3672 22.5104 53.3672 22.6406C53.3672 22.862 53.2956 23.0182 53.1523 23.1094C53.0091 23.2005 52.8333 23.2721 52.625 23.3242C52.4297 23.3763 52.2214 23.4219 52 23.4609C51.7917 23.513 51.6159 23.5977 51.4727 23.7148H51.4141C51.2578 23.7148 51.1406 23.6693 51.0625 23.5781C50.9844 23.487 50.8672 23.4414 50.7109 23.4414C50.4635 23.0378 50.2943 22.582 50.2031 22.0742C50.112 21.5794 50.0664 21.1042 50.0664 20.6484C50.0664 20.0885 50.1185 19.5286 50.2227 18.9688C50.3138 18.4089 50.431 17.8555 50.5742 17.3086C50.7044 16.7617 50.8477 16.2214 51.0039 15.6875C51.1732 15.1406 51.3294 14.5938 51.4727 14.0469L51.4922 13.9883C51.4922 13.9232 51.4727 13.8776 51.4336 13.8516C51.4076 13.8255 51.3945 13.7865 51.3945 13.7344C51.3945 13.7083 51.401 13.6953 51.4141 13.6953C51.4531 13.5651 51.4922 13.4414 51.5312 13.3242C51.5833 13.207 51.6224 13.0768 51.6484 12.9336C51.7266 12.569 51.7786 12.1979 51.8047 11.8203C51.8438 11.4297 51.8633 11.0456 51.8633 10.668C51.8763 10.2904 51.8893 9.91276 51.9023 9.53516C51.9284 9.14453 51.974 8.76042 52.0391 8.38281C52.1432 8.27865 52.2409 8.16797 52.332 8.05078C52.4232 7.93359 52.5404 7.82943 52.6836 7.73828C52.944 7.7513 53.2044 7.79036 53.4648 7.85547C53.7253 7.92057 53.9727 8.02474 54.207 8.16797C54.3633 8.72786 54.4674 9.28776 54.5195 9.84766C54.5846 10.4076 54.6888 10.9674 54.832 11.5273V11.5859C54.832 11.651 54.8646 11.6836 54.9297 11.6836C55.0078 11.6706 55.0664 11.6901 55.1055 11.7422C55.0794 11.7812 55.0599 11.8268 55.0469 11.8789C55.0469 11.931 55.0469 11.9831 55.0469 12.0352V12.3672C55.0729 12.4714 55.1055 12.582 55.1445 12.6992C55.1836 12.8164 55.2682 12.888 55.3984 12.9141C55.4635 13.3307 55.5612 13.7148 55.6914 14.0664C55.8216 14.418 55.9714 14.7565 56.1406 15.082C56.3099 15.4076 56.4922 15.7331 56.6875 16.0586C56.8828 16.3711 57.0846 16.7031 57.293 17.0547C57.6185 17.3021 57.8984 17.5885 58.1328 17.9141C58.3672 18.2266 58.6016 18.5326 58.8359 18.832C59.0833 19.1185 59.3568 19.3724 59.6562 19.5938C59.9688 19.8151 60.3724 19.9518 60.8672 20.0039C60.9323 19.9518 60.9779 19.8802 61.0039 19.7891L61.1016 19.5156C61.1406 19.4245 61.1797 19.3464 61.2188 19.2812C61.2708 19.2031 61.3424 19.1445 61.4336 19.1055C61.4596 18.7409 61.4857 18.3698 61.5117 17.9922C61.5508 17.6146 61.6354 17.2565 61.7656 16.918C61.7005 16.8008 61.668 16.6576 61.668 16.4883C61.668 16.3581 61.6745 16.2344 61.6875 16.1172C61.7135 16 61.7266 15.8828 61.7266 15.7656C61.7266 15.5182 61.6745 15.3164 61.5703 15.1602C61.5703 15.069 61.5768 14.9779 61.5898 14.8867C61.6029 14.7826 61.6419 14.6849 61.707 14.5938C61.6029 14.3333 61.5182 14.0599 61.4531 13.7734C61.401 13.487 61.375 13.194 61.375 12.8945C61.375 12.7253 61.3945 12.5495 61.4336 12.3672C61.3555 12.1719 61.3034 11.944 61.2773 11.6836L61.1992 10.8828C61.1732 10.6094 61.1341 10.3555 61.082 10.1211C61.0299 9.88672 60.9323 9.69792 60.7891 9.55469C60.8672 9.4375 60.9062 9.30078 60.9062 9.14453C60.9062 8.88411 60.8672 8.63672 60.7891 8.40234C60.7109 8.16797 60.6719 7.92057 60.6719 7.66016C60.6719 7.47786 60.7109 7.29557 60.7891 7.11328C61.0755 7.1263 61.3555 7.15885 61.6289 7.21094C61.9154 7.25 62.1953 7.26953 62.4688 7.26953C62.5469 7.3737 62.638 7.45833 62.7422 7.52344C62.8464 7.58854 62.957 7.65365 63.0742 7.71875C63.1914 7.77083 63.3021 7.82943 63.4062 7.89453C63.5234 7.95964 63.6146 8.05078 63.6797 8.16797ZM80.1641 19.5742C80.125 19.7565 80.0404 19.9062 79.9102 20.0234C79.793 20.1276 79.6497 20.2122 79.4805 20.2773C79.3112 20.3424 79.1354 20.388 78.9531 20.4141C78.7839 20.4271 78.6276 20.4336 78.4844 20.4336C78.4193 20.4336 78.3542 20.4336 78.2891 20.4336C78.237 20.4206 78.1784 20.4141 78.1133 20.4141C78.0482 20.4141 78.0156 20.4466 78.0156 20.5117C78.0156 20.5768 77.9831 20.6224 77.918 20.6484C77.8529 20.6224 77.7878 20.6029 77.7227 20.5898C77.6576 20.5768 77.5924 20.5703 77.5273 20.5703C77.4362 20.5703 77.3451 20.5768 77.2539 20.5898C77.1758 20.6029 77.0977 20.6094 77.0195 20.6094C76.9154 20.6094 76.8372 20.5964 76.7852 20.5703C76.7461 20.5443 76.707 20.5182 76.668 20.4922C76.6419 20.4531 76.6094 20.4141 76.5703 20.375C76.5443 20.3359 76.4987 20.3034 76.4336 20.2773C76.3424 20.2383 76.2643 20.2318 76.1992 20.2578C76.1471 20.2839 76.0625 20.2448 75.9453 20.1406C75.7891 20.0104 75.6523 19.8542 75.5352 19.6719C75.431 19.4766 75.3268 19.2747 75.2227 19.0664C75.1185 18.8581 75.0078 18.6497 74.8906 18.4414C74.7734 18.2331 74.6367 18.0508 74.4805 17.8945H74.3242C74.0898 17.8945 73.9271 17.9922 73.8359 18.1875C73.7708 18.1484 73.7057 18.1029 73.6406 18.0508C73.5755 17.9857 73.5039 17.9336 73.4258 17.8945C73.1263 17.9857 72.8138 18.0638 72.4883 18.1289C72.1628 18.194 71.8372 18.2266 71.5117 18.2266H71.2383C71.1602 18.2266 71.0755 18.2135 70.9844 18.1875C70.8542 18.2396 70.737 18.3047 70.6328 18.3828C70.5286 18.4479 70.4115 18.4805 70.2812 18.4805C70.2031 18.4805 70.112 18.4544 70.0078 18.4023C69.9297 18.4023 69.8906 18.4349 69.8906 18.5C69.9036 18.5651 69.8646 18.5977 69.7734 18.5977H69.5977C69.4154 18.5977 69.2331 18.6042 69.0508 18.6172C68.8815 18.6302 68.7057 18.6367 68.5234 18.6367C68.276 18.6367 68.0221 18.6042 67.7617 18.5391C67.6966 18.5781 67.625 18.5977 67.5469 18.5977C67.4948 18.6237 67.4557 18.6693 67.4297 18.7344C67.4036 18.7865 67.3776 18.8385 67.3516 18.8906C67.3255 18.9297 67.2865 18.9688 67.2344 19.0078C67.1953 19.0339 67.1367 19.0404 67.0586 19.0273C67.0326 19.1836 66.9674 19.3073 66.8633 19.3984C66.7591 19.4896 66.707 19.6263 66.707 19.8086C66.5638 19.8867 66.4466 19.9844 66.3555 20.1016C66.2643 20.2188 66.1732 20.3424 66.082 20.4727C65.9909 20.6029 65.8932 20.7266 65.7891 20.8438C65.6979 20.9609 65.5807 21.0521 65.4375 21.1172C65.3724 21.1953 65.3529 21.319 65.3789 21.4883C65.2357 21.6055 65.0599 21.7096 64.8516 21.8008C64.6432 21.8919 64.4479 21.9375 64.2656 21.9375C63.888 21.9375 63.6276 21.7357 63.4844 21.332C63.4844 21.2018 63.4974 21.0651 63.5234 20.9219C63.5365 20.7656 63.5625 20.6224 63.6016 20.4922C63.6406 20.349 63.6992 20.2253 63.7773 20.1211C63.8555 20.0039 63.9661 19.9193 64.1094 19.8672C64.1094 19.75 64.0703 19.6719 63.9922 19.6328C63.9141 19.5807 63.8815 19.4961 63.8945 19.3789C64.2461 19.2096 64.5521 18.9883 64.8125 18.7148C65.0729 18.4414 65.3073 18.1549 65.5156 17.8555C65.737 17.543 65.9583 17.2305 66.1797 16.918C66.401 16.6055 66.6484 16.3255 66.9219 16.0781V15.668C67.3125 15.2513 67.5664 14.7826 67.6836 14.2617C67.8268 14.2357 67.918 14.1706 67.957 14.0664C68.0091 13.9622 68.0352 13.8385 68.0352 13.6953C68.1003 13.6953 68.1393 13.6693 68.1523 13.6172C68.1784 13.5521 68.237 13.5326 68.3281 13.5586C68.4453 13.2461 68.5755 12.9596 68.7188 12.6992C68.862 12.4388 69.0052 12.1784 69.1484 11.918C69.2917 11.6445 69.4154 11.3646 69.5195 11.0781C69.6367 10.7917 69.7214 10.4727 69.7734 10.1211C69.9557 10.1081 70.0534 10.0234 70.0664 9.86719C70.0924 9.69792 70.1185 9.54818 70.1445 9.41797C70.3398 9.23568 70.4831 9.02083 70.5742 8.77344C70.6784 8.52604 70.7695 8.27214 70.8477 8.01172C70.9258 7.73828 71.0104 7.47135 71.1016 7.21094C71.2057 6.9375 71.349 6.69661 71.5312 6.48828V6.42969C71.5312 6.36458 71.5052 6.32552 71.4531 6.3125C71.401 6.28646 71.375 6.24089 71.375 6.17578C71.388 6.16276 71.3945 6.14974 71.3945 6.13672C71.5508 6.07161 71.668 5.96745 71.7461 5.82422C71.8242 5.66797 71.9414 5.55729 72.0977 5.49219C72.3711 5.71354 72.612 5.85026 72.8203 5.90234C73.0286 5.94141 73.3021 5.97396 73.6406 6C73.8099 6.18229 73.901 6.40365 73.9141 6.66406C73.9401 6.91146 73.9857 7.15885 74.0508 7.40625C74.1549 7.82292 74.2656 8.23307 74.3828 8.63672C74.513 9.02734 74.6107 9.43099 74.6758 9.84766C74.7148 10.0951 74.7865 10.3294 74.8906 10.5508C74.9948 10.7721 75.0664 11 75.1055 11.2344C75.1315 11.4167 75.1315 11.625 75.1055 11.8594C75.0794 12.0807 75.1055 12.276 75.1836 12.4453L75.3203 12.7578C75.3854 12.901 75.4375 13.0508 75.4766 13.207C75.5286 13.3633 75.5742 13.5195 75.6133 13.6758C75.7174 14.0664 75.8086 14.4896 75.8867 14.9453C75.9779 15.388 76.1146 15.7917 76.2969 16.1562C76.362 16.2865 76.4596 16.3776 76.5898 16.4297C76.7331 16.4818 76.8893 16.5208 77.0586 16.5469C77.2279 16.5599 77.3906 16.5664 77.5469 16.5664C77.7161 16.5534 77.8594 16.5469 77.9766 16.5469H78.1719C78.25 16.5469 78.3281 16.5599 78.4062 16.5859C78.4583 16.6901 78.4844 16.7812 78.4844 16.8594C78.4844 17.0156 78.4323 17.1393 78.3281 17.2305C78.224 17.3216 78.1719 17.4258 78.1719 17.543C78.1719 17.6081 78.1979 17.6797 78.25 17.7578C78.1979 17.7448 78.1198 17.7383 78.0156 17.7383C77.7161 17.7383 77.4232 17.7904 77.1367 17.8945C77.2409 18.1159 77.3776 18.3047 77.5469 18.4609C77.7292 18.6042 77.918 18.7409 78.1133 18.8711C78.2435 18.7669 78.3802 18.7148 78.5234 18.7148C78.6797 18.7148 78.8229 18.7539 78.9531 18.832C79.0964 18.8971 79.2461 18.9297 79.4023 18.9297C79.5195 18.9297 79.6042 18.9102 79.6562 18.8711C79.7604 18.9883 79.8451 19.112 79.9102 19.2422C79.9753 19.3594 80.0599 19.4701 80.1641 19.5742ZM74.0508 16.4492C74.0247 16.2279 73.9792 16.0716 73.9141 15.9805C73.862 15.8763 73.8164 15.7526 73.7773 15.6094C73.7253 15.4271 73.6862 15.2318 73.6602 15.0234C73.6471 14.8151 73.6211 14.6133 73.582 14.418C73.4909 13.9753 73.3867 13.5326 73.2695 13.0898C73.1654 12.6471 73.0286 12.2174 72.8594 11.8008C72.9115 11.7227 72.9375 11.651 72.9375 11.5859V11.5273C72.8203 11.3971 72.7357 11.2409 72.6836 11.0586C72.6315 10.8633 72.5794 10.6745 72.5273 10.4922C72.4883 10.2969 72.4297 10.1211 72.3516 9.96484C72.2865 9.79557 72.1758 9.65885 72.0195 9.55469C71.9805 9.63281 71.9609 9.72396 71.9609 9.82812C71.9609 9.91927 71.9674 10.0039 71.9805 10.082C72.0065 10.1602 72.0195 10.2448 72.0195 10.3359C71.8893 10.401 71.7917 10.5052 71.7266 10.6484C71.6745 10.7786 71.5833 10.8828 71.4531 10.9609C71.349 11.3776 71.1992 11.7747 71.0039 12.1523C70.8086 12.5169 70.6003 12.8815 70.3789 13.2461C70.1706 13.6107 69.9688 13.9818 69.7734 14.3594C69.5781 14.724 69.4219 15.1081 69.3047 15.5117C69.1354 15.6289 69.0182 15.7786 68.9531 15.9609C68.901 16.1432 68.875 16.3255 68.875 16.5078C68.9922 16.5729 69.1224 16.612 69.2656 16.625C69.4219 16.625 69.5716 16.625 69.7148 16.625C69.8581 16.625 69.9948 16.638 70.125 16.6641C70.2552 16.6901 70.3724 16.7552 70.4766 16.8594C70.6458 16.8073 70.8281 16.7747 71.0234 16.7617C71.2318 16.7357 71.401 16.6771 71.5312 16.5859C71.7917 16.6771 72.0716 16.7227 72.3711 16.7227C72.5273 16.7227 72.6771 16.7096 72.8203 16.6836C72.9766 16.6576 73.1263 16.625 73.2695 16.5859C73.3867 16.612 73.4779 16.6576 73.543 16.7227C73.6081 16.7747 73.7057 16.7943 73.8359 16.7812C73.901 16.7292 73.9401 16.6771 73.9531 16.625C73.9661 16.5599 73.9987 16.5013 74.0508 16.4492ZM18.0352 46.2773C18.0352 46.4076 18.0286 46.5052 18.0156 46.5703C17.9505 46.5964 17.8984 46.6354 17.8594 46.6875C17.8203 46.7266 17.7552 46.7396 17.6641 46.7266C17.638 46.9219 17.5729 47.0846 17.4688 47.2148C17.3646 47.3451 17.2539 47.4622 17.1367 47.5664C17.0326 47.6836 16.9284 47.8008 16.8242 47.918C16.7201 48.0482 16.6549 48.2109 16.6289 48.4062C16.4336 48.5104 16.2383 48.6471 16.043 48.8164C15.8607 48.9987 15.6979 49.1224 15.5547 49.1875C15.4505 49.2396 15.3398 49.2786 15.2227 49.3047C15.1055 49.3438 14.9883 49.3893 14.8711 49.4414C14.4935 49.6107 14.1029 49.7865 13.6992 49.9688C13.3086 50.151 12.8984 50.2422 12.4688 50.2422H12.332C12.2799 50.2943 12.2148 50.3268 12.1367 50.3398C12.0586 50.3659 11.9805 50.3854 11.9023 50.3984C11.8242 50.4115 11.7461 50.431 11.668 50.457C11.5898 50.4831 11.5312 50.5221 11.4922 50.5742C11.349 50.5221 11.1927 50.4961 11.0234 50.4961H10.8867C10.6654 50.5482 10.457 50.5872 10.2617 50.6133C10.0664 50.6393 9.85807 50.6523 9.63672 50.6523C9.24609 50.6523 8.85547 50.6263 8.46484 50.5742C8.07422 50.5221 7.68359 50.4766 7.29297 50.4375C7.04557 50.2422 6.84375 49.9948 6.6875 49.6953C6.53125 49.4089 6.45312 49.1029 6.45312 48.7773C6.45312 48.5299 6.50521 48.2956 6.60938 48.0742C6.71354 47.8659 6.85026 47.6771 7.01953 47.5078H7.07812C7.19531 47.5078 7.3125 47.4818 7.42969 47.4297C7.5599 47.3776 7.68359 47.3516 7.80078 47.3516C7.93099 47.3516 8.03516 47.4036 8.11328 47.5078C8.20443 47.612 8.26953 47.7357 8.30859 47.8789C8.36068 48.0221 8.39323 48.1654 8.40625 48.3086C8.41927 48.4648 8.42578 48.5885 8.42578 48.6797C8.56901 48.7448 8.71875 48.7839 8.875 48.7969C9.04427 48.8099 9.21354 48.8164 9.38281 48.8164C9.55208 48.8164 9.74089 48.8034 9.94922 48.7773C10.1576 48.7643 10.3659 48.7318 10.5742 48.6797C10.7956 48.6406 11.0039 48.5885 11.1992 48.5234C11.4076 48.4583 11.5833 48.3737 11.7266 48.2695C12.4427 48.2044 13.0742 48.0417 13.6211 47.7812C14.168 47.5208 14.7474 47.2148 15.3594 46.8633C15.3854 46.7201 15.4375 46.6094 15.5156 46.5312C15.6068 46.4401 15.6523 46.3099 15.6523 46.1406C15.6523 46.1146 15.6458 46.0885 15.6328 46.0625C15.6328 46.0234 15.6328 45.9909 15.6328 45.9648C15.3724 45.6393 15.099 45.3529 14.8125 45.1055C14.5391 44.8581 14.181 44.6953 13.7383 44.6172C13.6862 44.5 13.6016 44.4154 13.4844 44.3633C13.3672 44.2982 13.2435 44.2396 13.1133 44.1875C12.9831 44.1354 12.8594 44.0833 12.7422 44.0312C12.625 43.9661 12.5404 43.862 12.4883 43.7188C12.1367 43.6536 11.7721 43.5755 11.3945 43.4844C11.0299 43.3802 10.7174 43.1979 10.457 42.9375C10.2487 42.9245 10.0469 42.8854 9.85156 42.8203C9.66927 42.7422 9.48698 42.6706 9.30469 42.6055C9.1224 42.5273 8.93359 42.4622 8.73828 42.4102C8.54297 42.3451 8.34115 42.3125 8.13281 42.3125C8.08073 42.2214 8.00911 42.1497 7.91797 42.0977C7.82682 42.0456 7.72266 42 7.60547 41.9609C7.5013 41.9219 7.39714 41.8828 7.29297 41.8438C7.20182 41.7917 7.13021 41.7201 7.07812 41.6289C7.02604 41.6419 6.98698 41.668 6.96094 41.707C6.9349 41.7461 6.88932 41.7656 6.82422 41.7656H6.74609C6.72005 41.6875 6.66797 41.6354 6.58984 41.6094C6.51172 41.5703 6.46615 41.4987 6.45312 41.3945C6.21875 41.3815 6.00391 41.3359 5.80859 41.2578C5.6263 41.1797 5.45052 41.0951 5.28125 41.0039C5.125 40.8997 4.96224 40.8021 4.79297 40.7109C4.6237 40.6198 4.4349 40.5482 4.22656 40.4961C4.09635 40.3919 3.97266 40.2812 3.85547 40.1641C3.7513 40.0339 3.61458 39.9688 3.44531 39.9688C3.40625 39.9688 3.33464 39.9818 3.23047 40.0078C3.20443 39.7734 3.10677 39.6107 2.9375 39.5195C2.76823 39.4154 2.58594 39.3242 2.39062 39.2461C2.26042 38.9076 2.08464 38.6081 1.86328 38.3477C1.64193 38.0872 1.40104 37.8464 1.14062 37.625C1.16667 37.5469 1.17969 37.4883 1.17969 37.4492C1.17969 37.319 1.14714 37.2083 1.08203 37.1172C1.01693 37.013 0.945312 36.9284 0.867188 36.8633C0.684896 36.2773 0.59375 35.7044 0.59375 35.1445C0.59375 34.3633 0.769531 33.6406 1.12109 32.9766C1.45964 32.2995 2 31.7917 2.74219 31.4531C2.75521 31.349 2.78776 31.2578 2.83984 31.1797C2.90495 31.1016 2.94401 31.0104 2.95703 30.9062C3.07422 30.9062 3.16536 30.8802 3.23047 30.8281C3.29557 30.776 3.35417 30.724 3.40625 30.6719C3.47135 30.6068 3.53646 30.5482 3.60156 30.4961C3.66667 30.444 3.7513 30.4115 3.85547 30.3984C4.35026 29.9688 4.8776 29.6237 5.4375 29.3633C5.9974 29.0898 6.57031 28.8099 7.15625 28.5234C7.27344 28.4714 7.37109 28.3737 7.44922 28.2305H7.56641C7.69661 28.2305 7.79427 28.2044 7.85938 28.1523C7.9375 28.0872 8.04818 28.0677 8.19141 28.0938C8.24349 28.0156 8.30859 27.9635 8.38672 27.9375C8.47786 27.9115 8.5625 27.8919 8.64062 27.8789C8.73177 27.8529 8.81641 27.8203 8.89453 27.7812C8.97266 27.7422 9.02474 27.6836 9.05078 27.6055H9.1875C9.40885 27.6055 9.6237 27.5729 9.83203 27.5078C10.0404 27.4297 10.2487 27.3451 10.457 27.2539H10.5938C10.8542 27.2539 11.0951 27.2083 11.3164 27.1172C11.5508 27.013 11.7982 26.9414 12.0586 26.9023C12.1628 26.8763 12.2669 26.8698 12.3711 26.8828C12.4753 26.8958 12.5794 26.9023 12.6836 26.9023C12.7487 26.9023 12.8268 26.8958 12.918 26.8828C13.0091 26.8698 13.0742 26.8307 13.1133 26.7656H13.1523C13.2305 26.7656 13.276 26.7917 13.2891 26.8438C13.3021 26.8958 13.3411 26.9219 13.4062 26.9219C13.4974 26.9219 13.5885 26.9089 13.6797 26.8828C13.7708 26.8568 13.862 26.8438 13.9531 26.8438C14.3438 26.8438 14.7279 26.8828 15.1055 26.9609C15.4961 27.0391 15.8802 27.1107 16.2578 27.1758C16.2839 27.332 16.349 27.4427 16.4531 27.5078C16.5703 27.5729 16.694 27.6315 16.8242 27.6836V27.7617C16.8242 27.8659 16.8503 27.9505 16.9023 28.0156C16.8503 28.1979 16.7591 28.3346 16.6289 28.4258C16.4987 28.5169 16.3555 28.5951 16.1992 28.6602C16.2643 28.7122 16.3034 28.7839 16.3164 28.875C16.3294 28.9661 16.3359 29.0508 16.3359 29.1289V29.3633L16.2383 29.3438C16.0299 29.3438 15.9258 29.4414 15.9258 29.6367C15.7565 29.5326 15.5677 29.4674 15.3594 29.4414C15.1641 29.4154 14.9688 29.4023 14.7734 29.4023C14.513 29.4023 14.2396 29.4154 13.9531 29.4414C13.6667 29.4544 13.3867 29.4479 13.1133 29.4219C13.0091 29.5521 12.8789 29.6497 12.7227 29.7148C12.5664 29.7669 12.4102 29.793 12.2539 29.793C12.0846 29.793 11.9219 29.7604 11.7656 29.6953C11.6094 29.6172 11.4987 29.5065 11.4336 29.3633C11.3685 29.3372 11.3099 29.3242 11.2578 29.3242H11.082C10.8737 29.3242 10.6654 29.3503 10.457 29.4023C10.2617 29.4414 10.0599 29.4935 9.85156 29.5586C9.64323 29.6107 9.4349 29.6693 9.22656 29.7344C9.03125 29.7865 8.82943 29.819 8.62109 29.832C8.54297 29.9362 8.4388 30.0078 8.30859 30.0469C8.17839 30.0859 8.07422 30.1576 7.99609 30.2617C7.72266 30.3138 7.47526 30.4049 7.25391 30.5352C7.03255 30.6523 6.81771 30.7826 6.60938 30.9258L6.00391 31.3359C5.80859 31.4661 5.58724 31.5768 5.33984 31.668C5.15755 31.8633 4.98828 32.0195 4.83203 32.1367C4.67578 32.2539 4.47396 32.3581 4.22656 32.4492C4.07031 32.5013 3.97917 32.5794 3.95312 32.6836C3.9401 32.7878 3.88802 32.8919 3.79688 32.9961C3.71875 33.0872 3.62109 33.1589 3.50391 33.2109C3.39974 33.25 3.30859 33.3216 3.23047 33.4258C3.16536 33.5169 3.11328 33.6276 3.07422 33.7578C3.04818 33.875 3.01562 33.9922 2.97656 34.1094C2.9375 34.2266 2.89193 34.3438 2.83984 34.4609C2.78776 34.5651 2.70964 34.6562 2.60547 34.7344C2.60547 34.7865 2.59896 34.8385 2.58594 34.8906C2.58594 34.9427 2.58594 34.9883 2.58594 35.0273C2.58594 35.2096 2.60547 35.3984 2.64453 35.5938C2.69661 35.776 2.72917 35.9583 2.74219 36.1406C3.0026 36.5964 3.30859 37.013 3.66016 37.3906C4.01172 37.7552 4.38932 38.0938 4.79297 38.4062C5.19661 38.7188 5.61328 39.0117 6.04297 39.2852C6.48568 39.5586 6.92188 39.8255 7.35156 40.0859C7.50781 40.0729 7.65104 40.0924 7.78125 40.1445C7.91146 40.1836 8.04818 40.2096 8.19141 40.2227C8.34766 40.3398 8.52995 40.431 8.73828 40.4961L9.36328 40.6914C9.57161 40.7565 9.77344 40.8346 9.96875 40.9258C10.1641 41.0039 10.3268 41.1146 10.457 41.2578C10.5221 41.2708 10.5807 41.2904 10.6328 41.3164C10.6849 41.3294 10.7435 41.3359 10.8086 41.3359C10.8867 41.3359 10.9323 41.3099 10.9453 41.2578C11.5312 41.4792 12.1042 41.7266 12.6641 42C13.224 42.2604 13.8164 42.4622 14.4414 42.6055C14.6888 42.8138 14.9622 42.9961 15.2617 43.1523C15.5612 43.3086 15.8607 43.4714 16.1602 43.6406C16.4596 43.7969 16.7461 43.9727 17.0195 44.168C17.293 44.3503 17.5339 44.5716 17.7422 44.832C17.7682 45.0794 17.8203 45.3203 17.8984 45.5547C17.9896 45.776 18.0352 46.0169 18.0352 46.2773ZM31.4531 35.6914C31.375 35.8086 31.3294 35.9388 31.3164 36.082C31.3034 36.2253 31.2969 36.3555 31.2969 36.4727C31.2969 36.6289 31.2969 36.7852 31.2969 36.9414C31.3099 37.0846 31.3164 37.2279 31.3164 37.3711V37.6641C31.2904 37.7552 31.2513 37.8464 31.1992 37.9375C31.1471 38.0286 31.1081 38.1198 31.082 38.2109C30.8997 38.6927 30.8086 39.1745 30.8086 39.6562V39.6953C30.7435 39.8516 30.6784 39.9948 30.6133 40.125C30.5612 40.2552 30.5091 40.3854 30.457 40.5156C30.4049 40.6328 30.3659 40.763 30.3398 40.9062C30.3138 41.0365 30.3073 41.1927 30.3203 41.375C30.138 41.8307 29.8971 42.2474 29.5977 42.625C29.2982 42.9896 29.0052 43.3672 28.7188 43.7578C28.4453 43.862 28.1914 43.9987 27.957 44.168C27.7357 44.3372 27.5208 44.526 27.3125 44.7344C26.9089 44.8646 26.5117 45.0143 26.1211 45.1836C25.7305 45.3529 25.3789 45.5807 25.0664 45.8672C24.819 45.8932 24.5716 45.9323 24.3242 45.9844C24.0768 46.0365 23.8359 46.1146 23.6016 46.2188H23.3672C23.25 46.2188 23.1654 46.1927 23.1133 46.1406C22.944 46.2318 22.7682 46.2969 22.5859 46.3359C22.4036 46.362 22.2214 46.375 22.0391 46.375C21.8047 46.375 21.5703 46.362 21.3359 46.3359C21.1146 46.2969 20.8867 46.2578 20.6523 46.2188C20.5221 46.0365 20.3398 45.8997 20.1055 45.8086C19.8711 45.7044 19.6628 45.6068 19.4805 45.5156C19.1029 44.9948 18.8294 44.4935 18.6602 44.0117C18.4909 43.5169 18.3151 42.9635 18.1328 42.3516C18.1589 42.1693 18.2044 41.9935 18.2695 41.8242C18.3346 41.6419 18.3607 41.4466 18.3477 41.2383C18.582 40.5612 18.888 39.9492 19.2656 39.4023C19.6562 38.8424 20.099 38.3086 20.5938 37.8008C20.5938 37.7227 20.6068 37.6576 20.6328 37.6055C20.6719 37.5534 20.6784 37.4753 20.6523 37.3711C20.6654 37.3841 20.6914 37.3906 20.7305 37.3906C20.8346 37.3906 20.8997 37.3646 20.9258 37.3125C20.9518 37.2474 20.9583 37.1758 20.9453 37.0977C21.4141 36.7982 21.8372 36.4531 22.2148 36.0625C22.6055 35.6719 23.0482 35.3464 23.543 35.0859C23.582 34.9688 23.6471 34.8711 23.7383 34.793C23.8294 34.7148 23.901 34.6237 23.9531 34.5195C24.3698 34.4023 24.7474 34.2266 25.0859 33.9922C25.4245 33.7578 25.7826 33.5495 26.1602 33.3672C26.3685 33.25 26.5638 33.1719 26.7461 33.1328C26.9414 33.0807 27.1497 33.0286 27.3711 32.9766C27.4492 32.9505 27.5208 32.931 27.5859 32.918C27.651 32.9049 27.7227 32.8984 27.8008 32.8984C28.0352 32.8984 28.263 32.944 28.4844 33.0352C28.7057 33.1133 28.9336 33.1523 29.168 33.1523C29.2331 33.1523 29.2852 33.1523 29.3242 33.1523C29.3763 33.1393 29.4284 33.1263 29.4805 33.1133C29.7018 33.3867 29.9818 33.5951 30.3203 33.7383C30.3984 33.9336 30.4896 34.1029 30.5938 34.2461C30.7109 34.3893 30.8281 34.5326 30.9453 34.6758C31.0625 34.806 31.1667 34.9557 31.2578 35.125C31.362 35.2812 31.4271 35.4701 31.4531 35.6914ZM29.5 36.707C29.5 36.6419 29.4935 36.5833 29.4805 36.5312C29.3503 36.4922 29.2266 36.4401 29.1094 36.375C28.9922 36.3099 28.862 36.2773 28.7188 36.2773C28.6276 36.2773 28.5365 36.2969 28.4453 36.3359C28.4323 36.2448 28.3932 36.1797 28.3281 36.1406C28.276 36.1016 28.2109 36.069 28.1328 36.043C28.0677 36.0039 27.9961 35.9779 27.918 35.9648C27.8529 35.9388 27.7943 35.8997 27.7422 35.8477C27.7031 35.7435 27.6576 35.6393 27.6055 35.5352C27.5664 35.418 27.4883 35.3333 27.3711 35.2812C27.2539 35.3984 27.1172 35.4961 26.9609 35.5742C26.8047 35.6393 26.6419 35.7044 26.4727 35.7695C26.3164 35.8346 26.1602 35.9128 26.0039 36.0039C25.8607 36.0951 25.737 36.2057 25.6328 36.3359H25.2812C25.2031 36.4792 25.0924 36.5898 24.9492 36.668C24.806 36.7331 24.6823 36.8307 24.5781 36.9609C24.3698 37.0651 24.1745 37.1953 23.9922 37.3516C23.8229 37.4948 23.6536 37.651 23.4844 37.8203C23.3151 37.9766 23.1458 38.1393 22.9766 38.3086C22.8203 38.4779 22.651 38.6341 22.4688 38.7773C22.2995 39.1419 22.1107 39.4609 21.9023 39.7344C21.707 39.9948 21.5182 40.2617 21.3359 40.5352C21.1667 40.8086 21.0169 41.1081 20.8867 41.4336C20.7695 41.7461 20.7109 42.1367 20.7109 42.6055V42.8008C20.7109 42.8659 20.7174 42.931 20.7305 42.9961C20.8997 43.1784 21.0365 43.3737 21.1406 43.582C21.2578 43.7904 21.4466 43.9401 21.707 44.0312C21.9674 44.1354 22.2409 44.181 22.5273 44.168C22.8268 44.1549 23.1133 44.1875 23.3867 44.2656C24.0117 44.1484 24.6107 43.9596 25.1836 43.6992C25.7695 43.4258 26.3229 43.1003 26.8438 42.7227C26.9219 42.6576 27.013 42.5924 27.1172 42.5273C27.2214 42.4492 27.306 42.3711 27.3711 42.293C27.4362 42.2279 27.4883 42.1562 27.5273 42.0781C27.5794 42 27.6315 41.9284 27.6836 41.8633C27.7878 41.694 27.9049 41.5247 28.0352 41.3555C28.1654 41.1862 28.3021 41.0299 28.4453 40.8867C28.5104 40.6003 28.5951 40.3268 28.6992 40.0664C28.8034 39.793 28.9076 39.526 29.0117 39.2656C29.1159 39.0052 29.2005 38.7383 29.2656 38.4648C29.3438 38.1914 29.3828 37.9049 29.3828 37.6055C29.3828 37.5404 29.3763 37.4688 29.3633 37.3906C29.3633 37.3125 29.3568 37.2409 29.3438 37.1758C29.4479 37.0326 29.5 36.8763 29.5 36.707ZM48.9336 34.3828C48.9336 34.4609 48.8945 34.526 48.8164 34.5781C48.7513 34.6302 48.6732 34.6823 48.582 34.7344C48.5039 34.7865 48.4193 34.8451 48.3281 34.9102C48.25 34.9753 48.1979 35.0534 48.1719 35.1445H47.9961C47.918 35.1445 47.8789 35.1706 47.8789 35.2227H47.8203C47.7031 35.2227 47.625 35.1901 47.5859 35.125C47.5469 35.0469 47.4622 35.0078 47.332 35.0078C47.0065 35.0078 46.681 35.0143 46.3555 35.0273C46.043 35.0273 45.724 35.0339 45.3984 35.0469C44.5 35.0469 43.6146 35.0794 42.7422 35.1445C41.8828 35.1966 41.0299 35.3789 40.1836 35.6914C40.1576 35.7044 40.125 35.7109 40.0859 35.7109C40.0208 35.7109 39.9818 35.6849 39.9688 35.6328C39.9688 35.5807 39.9362 35.5547 39.8711 35.5547C39.6888 35.5547 39.5195 35.5742 39.3633 35.6133C39.207 35.6523 39.0378 35.6784 38.8555 35.6914C38.6471 35.8737 38.4062 36.0234 38.1328 36.1406C37.8724 36.2578 37.599 36.375 37.3125 36.4922C37.0391 36.5964 36.7721 36.7135 36.5117 36.8438C36.2513 36.9609 36.0234 37.1172 35.8281 37.3125C35.8542 37.4688 35.8737 37.625 35.8867 37.7812C35.9128 37.9245 35.9258 38.0677 35.9258 38.2109C35.9258 38.7708 35.8737 39.3242 35.7695 39.8711C35.6654 40.4049 35.6133 40.9453 35.6133 41.4922V41.7852C35.6133 41.8763 35.6198 41.974 35.6328 42.0781C35.6589 42.1432 35.7044 42.1888 35.7695 42.2148C35.8477 42.2279 35.9128 42.2539 35.9648 42.293C36.1341 42.1758 36.3034 42.0846 36.4727 42.0195C36.6549 41.9414 36.8372 41.8698 37.0195 41.8047C37.2148 41.7266 37.3971 41.6549 37.5664 41.5898C37.7487 41.5117 37.9245 41.4206 38.0938 41.3164H38.6406C38.7839 41.2122 38.9531 41.1341 39.1484 41.082C39.3438 41.0299 39.474 40.9128 39.5391 40.7305C39.5651 40.7565 39.5911 40.7695 39.6172 40.7695H39.6953C39.8516 40.7695 40.0078 40.737 40.1641 40.6719C40.3333 40.6068 40.5026 40.5417 40.6719 40.4766C40.8411 40.3984 41.0104 40.3268 41.1797 40.2617C41.349 40.1966 41.5247 40.1641 41.707 40.1641C41.7461 40.1641 41.7786 40.1706 41.8047 40.1836C41.8438 40.1836 41.8828 40.1836 41.9219 40.1836C42 40.0534 42.1107 39.9557 42.2539 39.8906C42.3971 39.8125 42.5469 39.7474 42.7031 39.6953C42.8594 39.6432 43.0156 39.5911 43.1719 39.5391C43.3411 39.487 43.4844 39.4219 43.6016 39.3438H43.6797C43.7578 39.3438 43.8164 39.3633 43.8555 39.4023C43.9076 39.4284 43.9661 39.4544 44.0312 39.4805C44.3958 39.2461 44.7669 39.1289 45.1445 39.1289C45.5352 39.1159 45.9388 39.0898 46.3555 39.0508C46.4466 39.207 46.5247 39.3372 46.5898 39.4414C46.668 39.5326 46.707 39.6693 46.707 39.8516C46.707 39.9427 46.7005 40.0078 46.6875 40.0469C46.5443 40.099 46.4336 40.1445 46.3555 40.1836L46.1406 40.3008C46.0755 40.3268 45.9974 40.3529 45.9062 40.3789C45.8151 40.3919 45.6849 40.3984 45.5156 40.3984C45.4115 40.3984 45.3659 40.431 45.3789 40.4961C45.3919 40.5482 45.3594 40.5807 45.2812 40.5938C45.099 40.6589 44.9167 40.7109 44.7344 40.75C44.5521 40.7891 44.3698 40.8411 44.1875 40.9062C43.8099 41.0234 43.4323 41.1536 43.0547 41.2969C42.6901 41.4271 42.3125 41.5312 41.9219 41.6094C41.5964 41.8698 41.2448 42.0846 40.8672 42.2539C40.4896 42.4102 40.099 42.5404 39.6953 42.6445C39.2656 42.957 38.8424 43.25 38.4258 43.5234C38.0091 43.7839 37.5404 44.0052 37.0195 44.1875C36.9544 44.2526 36.8763 44.3112 36.7852 44.3633C36.694 44.4154 36.6354 44.4935 36.6094 44.5977C36.5833 44.5977 36.5508 44.5977 36.5117 44.5977C36.4857 44.5846 36.4531 44.5781 36.4141 44.5781C36.2318 44.5781 36.0885 44.6237 35.9844 44.7148C35.8932 44.793 35.776 44.8451 35.6328 44.8711C35.5677 45.0664 35.5352 45.2357 35.5352 45.3789C35.5352 45.5612 35.5677 45.724 35.6328 45.8672C35.6979 46.0104 35.776 46.1471 35.8672 46.2773C35.9714 46.4076 36.0755 46.5378 36.1797 46.668C36.2969 46.7852 36.3945 46.9154 36.4727 47.0586C36.4466 47.2148 36.3945 47.3385 36.3164 47.4297C36.2513 47.5339 36.1732 47.625 36.082 47.7031C35.9909 47.7943 35.8997 47.8854 35.8086 47.9766C35.7305 48.0677 35.6719 48.1849 35.6328 48.3281C35.3984 48.3672 35.1706 48.3867 34.9492 48.3867C34.806 48.3867 34.6562 48.3672 34.5 48.3281C34.3568 48.3021 34.2201 48.25 34.0898 48.1719C33.8815 47.8854 33.7318 47.5794 33.6406 47.2539C33.5625 46.9284 33.4518 46.6029 33.3086 46.2773L33.3281 46.1406C33.3281 45.8542 33.276 45.6068 33.1719 45.3984C33.0807 45.1771 32.9375 44.9557 32.7422 44.7344C32.7552 44.7083 32.7617 44.6628 32.7617 44.5977C32.7617 44.4284 32.7096 44.2721 32.6055 44.1289C32.6315 43.8294 32.7096 43.5951 32.8398 43.4258C32.9831 43.2565 33.1393 43.0677 33.3086 42.8594V42.625C33.3086 42.0651 33.3542 41.5182 33.4453 40.9844C33.5495 40.4375 33.6016 39.8906 33.6016 39.3438C33.6016 39.0052 33.5755 38.7057 33.5234 38.4453C33.4844 38.4323 33.4323 38.4258 33.3672 38.4258C33.3021 38.4258 33.25 38.4453 33.2109 38.4844C33.1719 38.5104 33.1393 38.543 33.1133 38.582C33.0872 38.6211 33.0547 38.6602 33.0156 38.6992C32.9896 38.7383 32.944 38.7643 32.8789 38.7773C32.6576 38.7383 32.5143 38.6341 32.4492 38.4648C32.3841 38.2956 32.3516 38.1068 32.3516 37.8984C32.3516 37.7812 32.3581 37.6641 32.3711 37.5469C32.3841 37.4297 32.3971 37.306 32.4102 37.1758C32.9049 36.6289 33.4974 36.1211 34.1875 35.6523C34.8776 35.1836 35.5612 34.806 36.2383 34.5195C36.2773 34.5065 36.3229 34.5 36.375 34.5C36.4271 34.5 36.4727 34.513 36.5117 34.5391C36.5508 34.5521 36.5964 34.5586 36.6484 34.5586C36.6875 34.5586 36.7201 34.5456 36.7461 34.5195C36.8763 34.5195 36.9674 34.4805 37.0195 34.4023C37.0716 34.3242 37.1432 34.2461 37.2344 34.168C37.3255 34.2331 37.4036 34.2656 37.4688 34.2656C37.599 34.2656 37.7292 34.207 37.8594 34.0898C37.9896 33.9727 38.1328 33.901 38.2891 33.875C38.888 33.7708 39.474 33.6862 40.0469 33.6211C40.6328 33.556 41.2122 33.4062 41.7852 33.1719C41.9154 33.237 42.0456 33.276 42.1758 33.2891C42.306 33.3021 42.4362 33.3086 42.5664 33.3086C42.7096 33.3086 42.8659 33.2956 43.0352 33.2695C43.2174 33.2305 43.3607 33.1523 43.4648 33.0352C43.8815 33.0872 44.3242 33.1068 44.793 33.0938C45.2747 33.0807 45.75 33.0872 46.2188 33.1133C46.7005 33.1393 47.1628 33.2044 47.6055 33.3086C48.0482 33.4128 48.4388 33.6016 48.7773 33.875C48.8034 33.9661 48.8359 34.0508 48.875 34.1289C48.9141 34.207 48.9336 34.2917 48.9336 34.3828ZM64.5977 34.4414C64.5456 34.6107 64.4609 34.7669 64.3438 34.9102L64.0117 35.3203C63.9076 35.4505 63.8164 35.5938 63.7383 35.75C63.6732 35.8932 63.6536 36.0625 63.6797 36.2578C63.6536 36.2578 63.6211 36.2578 63.582 36.2578C63.543 36.2448 63.5104 36.2383 63.4844 36.2383C63.276 36.2383 63.1133 36.2904 62.9961 36.3945C62.8919 36.4857 62.7487 36.5638 62.5664 36.6289C62.5404 36.5508 62.5078 36.4792 62.4688 36.4141C62.4297 36.3359 62.3711 36.2839 62.293 36.2578C61.9805 36.3229 61.668 36.375 61.3555 36.4141C61.043 36.4401 60.7305 36.4792 60.418 36.5312C60.2747 36.5573 60.1315 36.5964 59.9883 36.6484C59.8451 36.6875 59.6953 36.7266 59.5391 36.7656C59.4609 36.7917 59.3763 36.8047 59.2852 36.8047C59.194 36.7917 59.1029 36.7917 59.0117 36.8047C58.6992 36.8177 58.3607 36.8438 57.9961 36.8828C57.6315 36.9089 57.306 37.0065 57.0195 37.1758C56.8893 37.1497 56.7526 37.1302 56.6094 37.1172C56.4661 37.1042 56.3229 37.0977 56.1797 37.0977C55.8672 37.0977 55.5221 37.1302 55.1445 37.1953C54.7799 37.2474 54.4544 37.3581 54.168 37.5273C54.1029 37.5013 54.0312 37.4818 53.9531 37.4688C53.888 37.4557 53.8099 37.4492 53.7188 37.4492C53.6927 37.4492 53.6732 37.4557 53.6602 37.4688C53.6471 37.4688 53.6276 37.4688 53.6016 37.4688C53.5885 37.5859 53.6016 37.7031 53.6406 37.8203C53.6927 37.9245 53.7773 38.0091 53.8945 38.0742C53.8424 38.2174 53.8164 38.3737 53.8164 38.543C53.8164 38.7643 53.8294 38.9857 53.8555 39.207C53.8945 39.4284 53.9141 39.6497 53.9141 39.8711C53.9141 40.1185 53.8815 40.3138 53.8164 40.457C53.9466 40.8477 54.0117 41.2643 54.0117 41.707C54.0117 41.8633 53.9987 42.0195 53.9727 42.1758C53.9596 42.319 53.9531 42.4753 53.9531 42.6445C53.9531 42.7878 54.0052 42.9049 54.1094 42.9961C54.2135 43.0742 54.2656 43.1849 54.2656 43.3281C54.2656 43.3802 54.2526 43.4323 54.2266 43.4844C54.4089 43.4453 54.5846 43.3932 54.7539 43.3281C54.9232 43.25 55.099 43.2109 55.2812 43.2109C55.3854 43.2109 55.4831 43.2305 55.5742 43.2695C55.6784 43.3086 55.7695 43.3607 55.8477 43.4258C55.8346 43.4909 55.8216 43.5625 55.8086 43.6406C55.8086 43.7188 55.8086 43.7969 55.8086 43.875C55.8086 44.0182 55.8086 44.1549 55.8086 44.2852C55.8216 44.4023 55.8346 44.5326 55.8477 44.6758C55.7435 44.8581 55.6198 45.0208 55.4766 45.1641C55.3464 45.3073 55.2552 45.4896 55.2031 45.7109C55.0078 45.7109 54.832 45.7565 54.6758 45.8477C54.5326 45.9258 54.3958 46.0169 54.2656 46.1211C54.1354 46.2122 54.0052 46.3034 53.875 46.3945C53.7448 46.4727 53.6016 46.5117 53.4453 46.5117C53.25 46.5117 53.1133 46.4857 53.0352 46.4336C52.957 46.3685 52.8984 46.3034 52.8594 46.2383C52.8203 46.1732 52.7812 46.1146 52.7422 46.0625C52.7161 46.0104 52.651 45.9909 52.5469 46.0039C52.5208 45.8346 52.4688 45.6784 52.3906 45.5352C52.3125 45.3789 52.2279 45.2292 52.1367 45.0859C52.0586 44.9427 51.974 44.7995 51.8828 44.6562C51.8047 44.5 51.7461 44.3438 51.707 44.1875C51.6289 43.849 51.5964 43.4974 51.6094 43.1328C51.6224 42.7682 51.5638 42.4167 51.4336 42.0781C51.4596 41.8958 51.4792 41.7135 51.4922 41.5312C51.5052 41.3359 51.5117 41.1471 51.5117 40.9648C51.5117 40.6003 51.4987 40.2422 51.4727 39.8906C51.4596 39.526 51.4466 39.1549 51.4336 38.7773C51.3424 38.6602 51.2839 38.5299 51.2578 38.3867C51.2448 38.2305 51.2318 38.0807 51.2188 37.9375C51.1797 37.8984 51.1341 37.8594 51.082 37.8203C51.043 37.7812 51.0169 37.7292 51.0039 37.6641C50.8997 37.638 50.8216 37.625 50.7695 37.625C50.5872 37.625 50.431 37.6706 50.3008 37.7617C50.1836 37.8398 50.0729 37.8789 49.9688 37.8789C49.8646 37.8789 49.7669 37.8659 49.6758 37.8398C49.5846 37.8138 49.4935 37.8008 49.4023 37.8008C49.3242 37.8008 49.2786 37.8203 49.2656 37.8594C49.2656 37.8854 49.2396 37.9115 49.1875 37.9375C49.1484 37.9635 49.0573 37.9896 48.9141 38.0156C48.7708 38.0417 48.6081 38.0677 48.4258 38.0938C48.2565 38.1068 48.0872 38.1198 47.918 38.1328C47.7617 38.1458 47.6576 38.1523 47.6055 38.1523C47.3971 38.1523 47.2409 38.1133 47.1367 38.0352C47.0195 37.944 46.8828 37.8464 46.7266 37.7422C46.7526 37.6641 46.7656 37.612 46.7656 37.5859C46.7656 37.4557 46.7266 37.3516 46.6484 37.2734C46.5703 37.1823 46.5312 37.1042 46.5312 37.0391C46.5312 36.8958 46.5898 36.7852 46.707 36.707C46.8112 36.6289 46.8698 36.5052 46.8828 36.3359C47.1823 36.2057 47.4883 36.1081 47.8008 36.043C48.1133 35.9779 48.4323 35.9258 48.7578 35.8867C49.0833 35.8477 49.4023 35.8021 49.7148 35.75C50.0404 35.6979 50.3594 35.6133 50.6719 35.4961C50.763 35.5091 50.8477 35.5221 50.9258 35.5352C51.0169 35.5352 51.1081 35.5352 51.1992 35.5352C51.5898 35.5352 51.974 35.4961 52.3516 35.418C52.7422 35.3268 53.1393 35.2812 53.543 35.2812C53.6471 35.2812 53.7513 35.2878 53.8555 35.3008C53.9596 35.3138 54.0638 35.3333 54.168 35.3594C54.6888 35.2812 55.2031 35.1966 55.7109 35.1055C56.2318 35.0143 56.7656 34.9362 57.3125 34.8711C57.5729 34.8451 57.8268 34.8255 58.0742 34.8125C58.3346 34.7865 58.5951 34.7539 58.8555 34.7148C58.9466 34.7018 59.0117 34.6823 59.0508 34.6562C59.1029 34.6172 59.1289 34.5456 59.1289 34.4414C59.2461 34.4935 59.3763 34.5195 59.5195 34.5195C59.7409 34.5195 59.9557 34.4805 60.1641 34.4023C60.3724 34.3242 60.5872 34.2852 60.8086 34.2852C60.8607 34.2852 60.9062 34.2917 60.9453 34.3047C60.9844 34.3047 61.0234 34.3047 61.0625 34.3047C61.1536 34.3047 61.1992 34.2656 61.1992 34.1875C61.2122 34.0964 61.2773 34.0378 61.3945 34.0117C61.4857 33.9857 61.6159 33.9661 61.7852 33.9531C61.9544 33.9401 62.1302 33.9271 62.3125 33.9141C62.5078 33.888 62.6836 33.862 62.8398 33.8359C63.0091 33.7969 63.1328 33.7448 63.2109 33.6797L63.3477 33.4648C63.582 33.4779 63.7513 33.582 63.8555 33.7773C63.9727 33.9596 64.0378 34.1615 64.0508 34.3828C64.1029 34.4349 64.1745 34.4609 64.2656 34.4609C64.3698 34.4479 64.4609 34.4414 64.5391 34.4414H64.5977Z" fill="white"/>
</svg>
