<svg enable-background="new 0 0 512 512" viewBox="0 0 512 512" fill="currentColor" height="32" width="32" xmlns="http://www.w3.org/2000/svg"><g id="_x31_2_Cashless_Payment"><g><path d="m258.458 463.984c0 2.945 2.388 5.333 5.333 5.333h135.974c2.945 0 5.333-2.388 5.333-5.333s-2.388-5.333-5.333-5.333h-135.974c-2.945 0-5.333 2.388-5.333 5.333z"/><path d="m453.105.02h-242.648c-17.652 0-31.998 14.346-31.998 31.998v93.699h10.666v-93.7c0-11.786 9.599-21.332 21.332-21.332h48.743l12.586 27.358c3.52 7.573 11.092 12.425 19.412 12.425h81.167c8.319 0 15.892-4.853 19.359-12.425l12.639-27.358h48.743c11.732 0 21.332 9.546 21.332 21.332v447.965c0 11.786-9.6 21.332-21.332 21.332h-242.649c-11.732 0-21.332-9.546-21.332-21.332v-93.699h-10.666v93.699c0 17.652 14.346 31.998 31.998 31.998h242.648c17.652 0 31.998-14.346 31.998-31.998v-447.965c-.001-17.652-14.346-31.997-31.998-31.997zm-96.313 30.557h-50.022c-2.986 0-5.333-2.4-5.333-5.333s2.346-5.333 5.333-5.333h50.023c2.986 0 5.333 2.4 5.333 5.333s-2.347 5.333-5.334 5.333z"/><path d="m396.576 348.953v-103.139h-369.678v103.139c0 14.666 11.999 26.665 26.665 26.665h316.349c14.718-.001 26.664-12 26.664-26.665zm-157.375-5.333h-19.305c-2.933 0-5.333-2.4-5.333-5.333 0-2.986 2.4-5.333 5.333-5.333h19.305c2.933 0 5.333 2.346 5.333 5.333 0 2.933-2.399 5.333-5.333 5.333zm120.044 0h-99.192c-2.933 0-5.333-2.4-5.333-5.333 0-2.986 2.4-5.333 5.333-5.333h99.192c2.933 0 5.333 2.346 5.333 5.333 0 2.933-2.4 5.333-5.333 5.333zm0-35.144h-99.192c-2.933 0-5.333-2.4-5.333-5.333s2.4-5.333 5.333-5.333h99.192c2.933 0 5.333 2.4 5.333 5.333s-2.4 5.333-5.333 5.333z"/><path d="m396.576 163.047c0-14.666-11.946-26.665-26.665-26.665h-316.349c-14.666 0-26.665 11.999-26.665 26.665v18.761h369.678v-18.761z"/><path d="m26.898 192.485h369.678v42.663h-369.678z"/></g></g></svg>