<svg version="1.1" id="Layer_1" xmlns="http://www.w3.org/2000/svg"
xmlns:xlink="http://www.w3.org/1999/xlink" viewBox="0 0 512 512"
xml:space="preserve" fill="#000000" width="24">
<g>
<rect x="15.2" y="25.6" style="fill:#FFFFFF;" width="20.8" height="296"></rect>
<rect x="109.6" y="25.6" style="fill:#FFFFFF;" width="10.4" height="296"></rect>
<rect x="63.2" y="25.6" style="fill:#FFFFFF;" width="2.4" height="296"></rect>
<rect x="272.8" y="25.6" style="fill:#FFFFFF;" width="2.4" height="296"></rect>
<rect x="248" y="25.6" style="fill:#FFFFFF;" width="10.4" height="296"></rect>
<rect x="151.2" y="25.6" style="fill:#FFFFFF;" width="20.8" height="296"></rect>
<rect x="300" y="25.6" style="fill:#FFFFFF;" width="52" height="296"></rect>
<rect x="424" y="25.6" style="fill:#FFFFFF;" width="72.8" height="296"></rect>
<rect x="205.6" y="25.6" style="fill:#FFFFFF;" width="20.8" height="296"></rect>
<rect x="378.4" y="25.6" style="fill:#FFFFFF;" width="20.8" height="296"></rect>
<rect x="15.2" y="400.8" style="fill:#FFFFFF;" width="20.8" height="85.6"></rect>
<rect x="109.6" y="400.8" style="fill:#FFFFFF;" width="10.4" height="85.6"></rect>
<rect x="63.2" y="400.8" style="fill:#FFFFFF;" width="2.4" height="85.6"></rect>
<rect x="272.8" y="400.8" style="fill:#FFFFFF;" width="2.4" height="85.6"></rect>
<rect x="248" y="400.8" style="fill:#FFFFFF;" width="10.4" height="85.6"></rect>
<rect x="151.2" y="400.8" style="fill:#FFFFFF;" width="20.8" height="85.6"></rect>
<rect x="300" y="400.8" style="fill:#FFFFFF;" width="52" height="85.6"></rect>
<rect x="424" y="400.8" style="fill:#FFFFFF;" width="72.8" height="85.6"></rect>
<rect x="205.6" y="400.8" style="fill:#FFFFFF;" width="20.8" height="85.6"></rect>
<rect x="378.4" y="400.8" style="fill:#FFFFFF;" width="20.8" height="85.6"></rect>
</g>
<path style="fill:#3A5A74;" d="M507.2,364H4.8c-2.4,0-4.8-2.4-4.8-4.8s2.4-4.8,4.8-4.8h502.4c2.4,0,4.8,2.4,4.8,4.8
C512,361.6,509.6,364,507.2,364z"></path>
<path style="fill:#5C7D99;" d="M507.2,354.4H4.8c-1.6,0-3.2,0.8-4,2.4c0.8,2.4,2.4,3.2,4,3.2h502.4c1.6,0,3.2-0.8,4-2.4
C510.4,355.2,508.8,354.4,507.2,354.4z"></path>
</svg>