<svg id="Layer_1" enable-background="new 0 0 512 512" viewBox="0 0 512 512" fill="#393939" height="32" width="32" xmlns="http://www.w3.org/2000/svg"><g><g><path d="m175.6 121.9c-10.4 18.6-32.2 27.6-52.5 21.9l-17.5 42.2 23.2.1c2.5-2.6 5.6-4.6 9-6 6.8-2.8 14.3-2.9 21.1-.1 3.5 1.4 6.6 3.5 9.1 6.1l90.8.1c12.1-3.8 24.8-4.1 36.8 0l35.6.1zm269.2 151.5v30.8l9.7-23.5c-3.5-2-6.8-4.4-9.7-7.3z"/><path d="m510.2 226.7c-2.4-5.8-6.9-10.2-12.7-12.6l-358-147.9c-5.8-2.3-12.1-2.3-17.9.1s-10.2 6.9-12.6 12.6l-44.1 107.1h29.2l21.1-51c1.1-2.7 4.3-4 6.9-2.9 18.2 7.5 38.7-1.4 46-19.1.5-1.3 1.6-2.3 2.9-2.9s2.8-.5 4.1 0l184.2 76.1 51.7.1c9 0 17.5 3.5 24.1 9.9 6.5 6.5 10 15 10 24.1l-.1 34.9c3.6 7.8 10 14.4 18.6 17.9 2.7 1.1 4 4.3 2.9 7l-21.5 52.1-.1 70.9 65.5-158.5c2.2-5.8 2.2-12.1-.2-17.9z"/></g><g><path d="m84.8 305c-9.3 0-16.9 7.6-16.9 16.9 0 9.4 7.6 16.9 16.9 16.9 9.3 0 16.9-7.6 16.9-16.9 0-9.3-7.5-16.9-16.9-16.9z"/><path d="m356.3 234.6-278.2-.3c-2.5 21.1-19.2 37.8-40.3 40.2l-.1 94.8c21 2.4 37.8 19.1 40.2 40.3l278.2.2c2.5-21.1 19.1-37.8 40.3-40.2l.1-94.8c-21-2.4-37.8-19.2-40.2-40.2zm-243.9 87.4c0 15.2-12.4 27.6-27.6 27.6-.1 0-.1 0-.1 0-15.3 0-27.6-12.4-27.6-27.6s12.4-27.6 27.6-27.6 27.6 12.3 27.6 27.5c.1 0 .1 0 .1.1zm104.7 74.3c-37.1-.1-64.2-35.1-64.2-74.2.1-39.5 27.5-74.2 64.2-74.2h.1c37.1.1 64.2 35.1 64.2 74.3-.1 39.3-27.5 74.1-64.3 74.1zm132.3-46.5c-15.3 0-27.6-12.4-27.6-27.6s12.4-27.6 27.6-27.6h.1c15.2 0 27.6 12.4 27.6 27.6s-12.5 27.6-27.7 27.6z"/><path d="m349.5 305.2c-9.3 0-16.9 7.6-16.9 16.9s7.6 16.9 16.9 16.9c9.3 0 16.9-7.6 16.9-16.9s-7.6-16.9-16.9-16.9z"/><path d="m427.4 203.7c-4.4-4.4-10.3-6.8-16.5-6.8l-387.3-.3c-.1 0-.1 0-.1 0-13 0-23.4 10.6-23.4 23.3l-.1 203.9c0 12.9 10.5 23.4 23.4 23.4l387.3.3h.1c6.2 0 12.1-2.5 16.5-6.8 4.4-4.4 6.9-10.3 6.9-16.5l.2-203.9c-.2-6.3-2.6-12.1-7-16.6zm-20.3 171c0 1.4-.6 2.8-1.6 3.7-1 1-2.3 1.6-3.7 1.6-.1 0-.1 0-.1 0-19.4 0-35.2 15.7-35.2 35.1 0 1.4-.6 2.8-1.5 3.8-1 1-2.4 1.5-3.8 1.5l-288.3-.3c-1.4 0-2.8-.5-3.8-1.5s-1.5-2.3-1.5-3.8c0-19.4-15.7-35.2-35.1-35.2-1.4 0-2.8-.6-3.8-1.6s-1.5-2.3-1.5-3.7l.1-104.8c0-1.4.6-2.8 1.6-3.8s2.3-1.5 3.7-1.5h.1c19.4 0 35.2-15.8 35.2-35.2 0-2.9 2.4-5.3 5.3-5.3l288.3.3c1.4 0 2.8.6 3.8 1.5 1 1 1.5 2.3 1.5 3.8 0 19.5 15.7 35.2 35.1 35.3 1.4 0 2.8.5 3.8 1.5s1.5 2.3 1.5 3.8z"/><path d="m204.6 304.1c0 5 3 9.3 7.2 11.3v-22.6c-4.3 2.1-7.2 6.4-7.2 11.3z"/><path d="m222.4 351.3c4.3-2 7.2-6.3 7.2-11.3s-3-9.3-7.2-11.3z"/><path d="m217.2 258.5c-31 0-53.5 30.2-53.6 63.5 0 33.6 22.9 63.6 53.5 63.6h.1c30.9 0 53.5-30.2 53.5-63.5 0-33.6-23-63.5-53.5-63.6zm23.1 81.4c0 11-7.7 20.1-17.9 22.6v4.1c0 2.9-2.4 5.3-5.3 5.3s-5.3-2.4-5.3-5.3v-4.2c-10.2-2.4-17.9-11.6-17.9-22.6 0-2.9 2.4-5.3 5.3-5.3s5.3 2.4 5.3 5.3c0 5 3 9.3 7.2 11.3v-24.6c-10.2-2.4-17.9-11.6-17.9-22.6 0-10.9 7.7-20.1 17.9-22.5v-4.2c0-2.9 2.4-5.3 5.3-5.3s5.3 2.4 5.3 5.3v4.1c10.2 2.4 17.9 11.6 17.9 22.5 0 2.9-2.4 5.3-5.3 5.3s-5.3-2.4-5.3-5.3c0-5-3-9.3-7.2-11.3v24.6c10.3 2.7 17.9 11.9 17.9 22.8z"/></g></g></svg>