<svg version="1.1" id="Layer_1" xmlns="http://www.w3.org/2000/svg" xmlns:xlink="http://www.w3.org/1999/xlink" viewBox="0 0 501.551 501.551" xml:space="preserve" fill="#000000" width="24"><g id="SVGRepo_bgCarrier" stroke-width="0"></g><g id="SVGRepo_tracerCarrier" stroke-linecap="round" stroke-linejoin="round"></g><g id="SVGRepo_iconCarrier"> <path style="fill:#40596B;" d="M480.653,90.906H20.898C9.404,90.906,0,100.31,0,111.804v298.841 c0,11.494,9.404,20.898,20.898,20.898h459.755c11.494,0,20.898-9.404,20.898-20.898V111.804 C501.551,100.31,492.147,90.906,480.653,90.906z"></path> <rect x="31.347" y="122.253" style="fill:#FFFFFF;" width="438.857" height="277.943"></rect> <rect x="154.645" y="431.543" style="fill:#CDD6E0;" width="191.216" height="56.425"></rect> <rect x="97.176" y="487.967" style="fill:#F2F2F2;" width="307.2" height="13.584"></rect> <rect x="154.645" y="431.543" style="fill:#ACB3BA;" width="191.216" height="15.673"></rect> <polygon style="fill:#E4EAEF;" points="435.722,122.253 415.869,400.196 85.682,400.196 65.829,122.253 "></polygon> <rect x="85.682" y="48.065" style="fill:#F2F2F2;" width="329.143" height="352.131"></rect> <rect x="85.682" style="fill:#ACB3BA;" width="329.143" height="48.065"></rect> <g> <circle style="fill:#F2F2F2;" cx="198.531" cy="24.033" r="13.584"></circle> <circle style="fill:#F2F2F2;" cx="154.645" cy="24.033" r="13.584"></circle> <circle style="fill:#F2F2F2;" cx="109.714" cy="24.033" r="13.584"></circle> <path style="fill:#F2F2F2;" d="M391.837,10.449H282.122c-7.314,0-13.584,6.269-13.584,13.584s6.269,13.584,13.584,13.584h109.714 c7.314,0,13.584-6.269,13.584-13.584S399.151,10.449,391.837,10.449z"></path> </g> <circle style="fill:#F8B64C;" cx="178.678" cy="104.49" r="44.931"></circle> <circle style="fill:#FFD15C;" cx="178.678" cy="104.49" r="33.437"></circle> <g> <path style="fill:#F8B64C;" d="M181.812,99.265c-5.224-2.09-6.269-3.135-6.269-4.18c0-2.09,1.045-3.135,4.18-3.135 c3.135,0,5.225,1.045,6.269,2.09l2.09,1.045l3.135-8.359l-2.09-1.045c-2.09-1.045-4.18-2.09-6.269-2.09v-6.269h-9.404v6.269 c-5.225,2.09-9.404,6.269-9.404,11.494c0,7.314,6.269,10.449,11.494,12.539c5.224,2.09,5.224,3.135,5.224,5.224 c0,2.09-2.09,3.135-5.224,3.135c-2.09,0-5.224-1.045-7.314-2.09l-3.135-2.09l-3.135,9.404l2.09,1.045 c2.09,1.045,5.224,2.09,8.359,3.135v6.269h9.404v-7.314c6.269-2.09,9.404-6.269,9.404-12.539 C193.306,105.535,187.037,101.355,181.812,99.265z"></path> <circle style="fill:#F8B64C;" cx="382.433" cy="142.106" r="30.302"></circle> </g> <circle style="fill:#FFD15C;" cx="382.433" cy="142.106" r="22.988"></circle> <g> <path style="fill:#F8B64C;" d="M384.522,138.971c-4.18-2.09-4.18-2.09-4.18-3.135s1.045-2.09,3.135-2.09s4.18,1.045,4.18,1.045 l2.09,1.045l2.09-6.269l-1.045-1.045c-1.045-1.045-3.135-1.045-4.18-1.045v-4.18h-6.269v4.18c-4.18,1.045-6.269,4.18-6.269,8.359 c0,5.224,4.18,7.314,8.359,8.359c3.135,1.045,3.135,2.09,3.135,3.135c0,2.09-2.09,2.09-3.135,2.09c-2.09,0-3.135-1.045-5.224-1.045 l-2.09-1.045l-2.09,6.269l1.045,1.045c1.045,1.045,3.135,2.09,5.224,2.09v4.18h6.269v-5.224c4.18-1.045,6.269-4.18,6.269-8.359 C391.837,142.106,387.657,140.016,384.522,138.971z"></path> <circle style="fill:#F8B64C;" cx="412.735" cy="272.718" r="30.302"></circle> </g> <circle style="fill:#FFD15C;" cx="412.735" cy="272.718" r="22.988"></circle> <g> <path style="fill:#F8B64C;" d="M414.824,268.539c-4.18-2.09-4.18-2.09-4.18-3.135s1.045-2.09,3.135-2.09s4.18,1.045,4.18,1.045 l2.09,1.045l2.09-6.269l-1.045-1.045c-1.045-1.045-3.135-1.045-4.18-1.045v-4.18h-6.269v4.18c-4.18,1.045-6.269,4.18-6.269,8.359 c0,5.224,4.18,7.314,8.359,8.359c3.135,1.045,3.135,2.09,3.135,3.135c0,2.09-2.09,2.09-3.135,2.09c-2.09,0-3.135-1.045-5.224-1.045 l-2.09-1.045l-2.09,6.269l1.045,1.045c1.045,1.045,3.135,2.09,5.224,2.09v4.18h6.269v-5.224c4.18-1.045,6.269-4.18,6.269-8.359 C422.139,272.718,417.959,270.629,414.824,268.539z"></path> <circle style="fill:#F8B64C;" cx="96.131" cy="362.58" r="30.302"></circle> </g> <circle style="fill:#FFD15C;" cx="96.131" cy="362.58" r="22.988"></circle> <g> <path style="fill:#F8B64C;" d="M98.22,359.445c-4.18-2.09-4.18-2.09-4.18-3.135c0-1.045,1.045-2.09,3.135-2.09 c2.09,0,4.18,1.045,4.18,1.045l2.09,1.045l2.09-6.269l-1.045-1.045c-1.045-1.045-3.135-1.045-4.18-1.045v-4.18h-6.269v4.18 c-4.18,1.045-6.269,4.18-6.269,8.359c0,5.224,4.18,7.314,8.359,8.359c3.135,1.045,3.135,2.09,3.135,3.135 c0,2.09-2.09,2.09-3.135,2.09c-2.09,0-3.135-1.045-5.224-1.045l-2.09-1.045l-2.09,6.269l1.045,1.045 c1.045,1.045,3.135,2.09,5.224,2.09v4.18h6.269v-5.224c4.18-1.045,6.269-4.18,6.269-8.359 C106.58,362.58,102.4,360.49,98.22,359.445z"></path> <circle style="fill:#F8B64C;" cx="85.682" cy="199.576" r="30.302"></circle> </g> <circle style="fill:#FFD15C;" cx="85.682" cy="199.576" r="22.988"></circle> <path style="fill:#F8B64C;" d="M87.771,195.396c-4.18-2.09-4.18-2.09-4.18-3.135s1.045-2.09,3.135-2.09 c2.09,0,4.18,1.045,4.18,1.045l2.09,2.09l2.09-6.269l-1.045-1.045c-1.045-1.045-3.135-1.045-4.18-1.045v-4.18h-6.269v4.18 c-4.18,1.045-6.269,4.18-6.269,8.359c0,5.225,4.18,7.314,8.359,8.359c3.135,2.09,3.135,3.135,3.135,3.135 c0,2.09-2.09,2.09-3.135,2.09c-2.09,0-3.135-1.045-5.224-1.045l-2.09-1.045l-2.09,6.269l1.045,1.045 c1.045,1.045,3.135,1.045,6.269,2.09v4.18h5.224v-5.224c4.18-1.045,6.269-4.18,6.269-8.359 C96.131,199.576,91.951,197.486,87.771,195.396z"></path> <g> <path style="fill:#FFFFFF;" d="M253.91,140.016v49.11c-1.045,0-2.09,0-3.135,0c-1.045,0-2.09,0-3.135,0v-49.11 C247.641,140.016,253.91,140.016,253.91,140.016z"></path> <path style="fill:#FFFFFF;" d="M253.91,332.278v49.11h-5.224v-49.11c1.045,0,2.09,0,3.135,0S252.865,332.278,253.91,332.278z"></path> <path style="fill:#FFFFFF;" d="M338.547,177.633l-34.482,34.482c-1.045-1.045-2.09-3.135-4.18-4.18l35.527-34.482L338.547,177.633z "></path> <path style="fill:#FFFFFF;" d="M202.71,313.469l-35.527,34.482l-4.18-4.18l35.527-34.482 C199.576,311.38,200.62,312.424,202.71,313.469z"></path> <path style="fill:#FFFFFF;" d="M371.984,258.09v5.224h-49.11c0-1.045,0-2.09,0-2.09c0-1.045,0-2.09,0-3.135H371.984z"></path> <path style="fill:#FFFFFF;" d="M179.722,261.224c0,1.045,0,2.09,0,2.09h-49.11v-5.224h49.11 C179.722,259.135,179.722,260.18,179.722,261.224z"></path> <path style="fill:#FFFFFF;" d="M338.547,344.816l-4.18,4.18l-35.527-34.482c1.045-1.045,3.135-2.09,4.18-4.18L338.547,344.816z"></path> <path style="fill:#FFFFFF;" d="M202.71,208.98c-1.045,1.045-3.135,2.09-4.18,4.18l-35.527-34.482l4.18-4.18L202.71,208.98z"></path> <path style="fill:#FFFFFF;" d="M225.698,194.351c-2.09,1.045-3.135,1.045-5.224,2.09l-11.494-28.212l5.224-2.09L225.698,194.351z"></path> <path style="fill:#FFFFFF;" d="M292.571,354.22l-5.224,2.09l-11.494-28.212c2.09,0,3.135-1.045,5.224-2.09L292.571,354.22z"></path> <path style="fill:#FFFFFF;" d="M185.992,230.922c-1.045,1.045-1.045,3.135-2.09,5.224l-28.212-11.494l2.09-5.224L185.992,230.922z"></path> <path style="fill:#FFFFFF;" d="M345.861,297.796l-2.09,5.225l-28.212-11.494c1.045-1.045,1.045-3.135,2.09-5.224L345.861,297.796z"></path> <path style="fill:#FFFFFF;" d="M185.992,290.482l-28.212,11.494l-2.09-4.18l28.212-11.494 C183.902,287.347,184.947,289.437,185.992,290.482z"></path> <path style="fill:#FFFFFF;" d="M345.861,224.653l-28.212,11.494c0-2.09-1.045-3.135-2.09-5.224l28.212-11.494L345.861,224.653z"></path> <path style="fill:#FFFFFF;" d="M225.698,328.098l-11.494,28.212l-5.224-2.09l11.494-28.212 C222.563,327.053,224.653,327.053,225.698,328.098z"></path> <path style="fill:#FFFFFF;" d="M292.571,168.229l-11.494,28.212c-1.045-1.045-3.135-1.045-5.224-2.09l11.494-28.212 L292.571,168.229z"></path> </g> <polygon style="fill:#40596B;" points="205.845,216.294 230.922,306.155 252.865,283.167 275.853,306.155 295.706,286.302 272.718,263.314 295.706,241.371 "></polygon> </g></svg>